<svg id="Group_16371" data-name="Group 16371" xmlns="http://www.w3.org/2000/svg" width="40" height="40" viewBox="0 0 40 40">
  <path id="Path_11545" data-name="Path 11545" d="M0,0H40V40H0Z" fill="none"/>
  <path id="Path_11546" data-name="Path 11546" d="M20,2c4.891,0,5.5.018,7.42.108a13.26,13.26,0,0,1,4.37.837A8.776,8.776,0,0,1,34.98,5.02a8.834,8.834,0,0,1,2.075,3.19,13.3,13.3,0,0,1,.837,4.37C37.977,14.5,38,15.109,38,20s-.018,5.5-.108,7.42a13.307,13.307,0,0,1-.837,4.37,9.19,9.19,0,0,1-5.265,5.265,13.3,13.3,0,0,1-4.37.837C25.5,37.977,24.891,38,20,38s-5.5-.018-7.42-.108a13.307,13.307,0,0,1-4.37-.837A9.19,9.19,0,0,1,2.945,31.79a13.251,13.251,0,0,1-.837-4.37C2.023,25.5,2,24.891,2,20s.018-5.5.108-7.42a13.251,13.251,0,0,1,.837-4.37A8.784,8.784,0,0,1,5.02,5.02,8.815,8.815,0,0,1,8.21,2.945a13.251,13.251,0,0,1,4.37-.837C14.5,2.023,15.109,2,20,2Zm0,9a9,9,0,1,0,9,9A9,9,0,0,0,20,11Zm11.7-.45a2.25,2.25,0,1,0-2.25,2.25A2.25,2.25,0,0,0,31.7,10.55ZM20,14.6A5.4,5.4,0,1,1,14.6,20,5.4,5.4,0,0,1,20,14.6Z" transform="translate(0 0)" fill="#1d72db"/>
</svg>
