<svg id="Group_16381" data-name="Group 16381" xmlns="http://www.w3.org/2000/svg" width="30" height="30" viewBox="0 0 30 30">
  <path id="Path_11543" data-name="Path 11543" d="M0,0H30V30H0Z" fill="rgba(221,219,219,0)"/>
  <path id="Path_11544" data-name="Path 11544" d="M12.592,7.855l1.354,1.354a6.7,6.7,0,0,1,0,9.475l-.339.338A6.7,6.7,0,0,1,4.133,9.547L5.487,10.9a4.785,4.785,0,1,0,6.767,6.768l.339-.339a4.786,4.786,0,0,0,0-6.767L11.239,9.209l1.354-1.353Zm6.429,5.753-1.353-1.353A4.785,4.785,0,1,0,10.9,5.487l-.339.339a4.786,4.786,0,0,0,0,6.767l1.354,1.354L10.562,15.3,9.209,13.947a6.7,6.7,0,0,1,0-9.475l.339-.338a6.7,6.7,0,0,1,9.475,9.475Z" transform="translate(3.422 3.422)" fill="#1d1e1f"/>
</svg>
