<svg xmlns="http://www.w3.org/2000/svg" width="50" height="50" viewBox="0 0 50 50">
  <path id="Path_15735" data-name="Path 15735" d="M197.8,108.749c1.03-1.04,2.2-2.23,2.2-3.75s-1.17-2.7-2.2-3.74a5.733,5.733,0,0,1-1.51-1.97,5.89,5.89,0,0,1,.33-2.55c.37-1.46.76-2.97.03-4.24-.74-1.29-2.32-1.72-3.71-2.1a5.844,5.844,0,0,1-2.36-.98,5.874,5.874,0,0,1-.97-2.35c-.38-1.39-.82-2.98-2.1-3.71s-2.78-.35-4.24.03a5.943,5.943,0,0,1-2.57.33,6.073,6.073,0,0,1-1.95-1.52c-1.05-1.03-2.23-2.2-3.75-2.2s-2.7,1.17-3.74,2.2a5.906,5.906,0,0,1-1.97,1.52,5.888,5.888,0,0,1-2.55-.33c-1.46-.38-2.98-.77-4.24-.03-1.29.73-1.72,2.32-2.1,3.71a5.992,5.992,0,0,1-.98,2.36,5.867,5.867,0,0,1-2.35.97c-1.4.38-2.98.81-3.71,2.09s-.35,2.79.03,4.25a6.079,6.079,0,0,1,.33,2.56,5.983,5.983,0,0,1-1.52,1.96C151.17,102.3,150,103.479,150,105s1.17,2.71,2.2,3.75a5.986,5.986,0,0,1,1.52,1.96,6.088,6.088,0,0,1-.33,2.56c-.38,1.46-.77,2.97-.03,4.24s2.31,1.72,3.71,2.1a5.844,5.844,0,0,1,2.36.98,6.013,6.013,0,0,1,.97,2.35c.38,1.39.81,2.97,2.09,3.71s2.79.34,4.25-.03a5.917,5.917,0,0,1,2.56-.33,5.8,5.8,0,0,1,1.96,1.51c1.04,1.03,2.22,2.2,3.74,2.2s2.7-1.17,3.75-2.2a5.806,5.806,0,0,1,1.96-1.51,5.933,5.933,0,0,1,2.56.33c1.46.37,2.97.76,4.24.03s1.72-2.32,2.1-3.71a5.847,5.847,0,0,1,.98-2.36,5.874,5.874,0,0,1,2.35-.97c1.39-.38,2.97-.82,3.71-2.1s.34-2.78-.03-4.24a5.933,5.933,0,0,1-.33-2.56,5.808,5.808,0,0,1,1.51-1.96Zm-11.11-10.3-14.52,14.52a1.014,1.014,0,0,1-1.42,0l-7.43-7.43a1.008,1.008,0,0,1,0-1.42,1,1,0,0,1,1.41,0l6.73,6.73,13.81-13.81a1.008,1.008,0,0,1,1.42,0,1,1,0,0,1,0,1.41Z" transform="translate(-150 -79.999)" fill="#50bf97"/>
</svg>
