<svg id="Group_16372" data-name="Group 16372" xmlns="http://www.w3.org/2000/svg" width="40" height="40" viewBox="0 0 40 40">
  <path id="Path_11547" data-name="Path 11547" d="M0,0H40V40H0Z" fill="none"/>
  <path id="Path_11548" data-name="Path 11548" d="M20,38A18,18,0,1,1,38,20,18,18,0,0,1,20,38ZM14.4,22.106l.023-.013,1.566,5.166c.2.56.479.661.815.614a1.245,1.245,0,0,0,.738-.439l2.138-2.066,4.59,3.4c.839.463,1.442.223,1.651-.778l2.983-14.08c.329-1.31-.247-1.836-1.264-1.418L10.123,19.258c-1.2.479-1.188,1.148-.216,1.445l4.495,1.4Z" fill="#1d72db"/>
</svg>
