<svg id="Group_16369" data-name="Group 16369" xmlns="http://www.w3.org/2000/svg" width="40" height="40" viewBox="0 0 40 40">
  <path id="Path_11541" data-name="Path 11541" d="M0,0H40V40H0Z" fill="none"/>
  <path id="Path_11542" data-name="Path 11542" d="M2.007,38l2.434-8.942a17.992,17.992,0,1,1,6.505,6.5ZM13.5,11.554a1.73,1.73,0,0,0-.668.18,2.327,2.327,0,0,0-.529.41,4.012,4.012,0,0,0-.47.551,4.912,4.912,0,0,0-1.017,3.02,6.3,6.3,0,0,0,.594,2.543,17.2,17.2,0,0,0,3.548,4.936c.385.383.761.769,1.166,1.127A17.006,17.006,0,0,0,23.04,28l1.024.157a9.788,9.788,0,0,0,1-.023,3.582,3.582,0,0,0,1.5-.416c.3-.158.439-.238.689-.4,0,0,.077-.05.225-.162a4.13,4.13,0,0,0,.594-.518,2.066,2.066,0,0,0,.378-.544,5.013,5.013,0,0,0,.338-1.319,3.53,3.53,0,0,0,.025-.671.614.614,0,0,0-.342-.477l-1.048-.47s-1.566-.682-2.522-1.118a.9.9,0,0,0-.319-.074.868.868,0,0,0-.68.229v0a21.678,21.678,0,0,0-1.431,1.679.63.63,0,0,1-.662.234,2.549,2.549,0,0,1-.344-.119c-.223-.094-.3-.13-.454-.2l-.009,0a10.818,10.818,0,0,1-2.826-1.8c-.227-.2-.437-.414-.653-.623a11.333,11.333,0,0,1-1.836-2.282l-.106-.171a1.662,1.662,0,0,1-.184-.369.577.577,0,0,1,.11-.477s.437-.479.641-.738a7.884,7.884,0,0,0,.473-.671,1.089,1.089,0,0,0,.167-.965q-.756-1.847-1.562-3.674a.912.912,0,0,0-.707-.448c-.1-.011-.194-.022-.292-.029a6.093,6.093,0,0,0-.725.007Z" transform="translate(0 0)" fill="#1d72db"/>
</svg>
