<svg id="Group_20635" data-name="Group 20635" xmlns="http://www.w3.org/2000/svg" width="52" height="52" viewBox="0 0 52 52">
  <circle id="Ellipse_204" data-name="Ellipse 204" cx="26" cy="26" r="26" fill="#D91C3033"/>
  <path id="Path_1471" data-name="Path 1471" d="M1064.974,281.762l8.723,15.418a3.63,3.63,0,0,1,.3,1.224,3.424,3.424,0,0,1-3.215,3.6h-17.565a3.723,3.723,0,0,1-1.092-.242,3.445,3.445,0,0,1-1.872-4.468l8.782-15.538a3.305,3.305,0,0,1,1.32-1.32A3.387,3.387,0,0,1,1064.974,281.762Zm-1.932,10.161a1.05,1.05,0,1,1-2.1,0V288.5a1.05,1.05,0,1,1,2.1,0ZM1062,297.133a1.066,1.066,0,0,1,0-2.133,1.05,1.05,0,0,1,1.044,1.054A1.064,1.064,0,0,1,1062,297.133Z" transform="translate(-1036.001 -266)" fill="#d91c30" fill-rule="evenodd"/>
</svg>
