<svg xmlns="http://www.w3.org/2000/svg" width="42" height="40" viewBox="0 0 42 40">
  <path id="Path_15771" data-name="Path 15771" d="M635.424,360.383a2.32,2.32,0,0,0-.67,2.042l1.867,10.357a2.276,2.276,0,0,1-.945,2.274,2.307,2.307,0,0,1-2.457.168l-9.3-4.863a2.37,2.37,0,0,0-1.05-.276H622.3a1.7,1.7,0,0,0-.567.19l-9.3,4.886a2.448,2.448,0,0,1-1.491.232,2.34,2.34,0,0,1-1.869-2.676l1.869-10.357a2.359,2.359,0,0,0-.67-2.061l-7.582-7.368a2.277,2.277,0,0,1-.565-2.379,2.359,2.359,0,0,1,1.867-1.579l10.436-1.518a2.335,2.335,0,0,0,1.848-1.282l4.6-9.452a2.192,2.192,0,0,1,.42-.568l.189-.147a1.413,1.413,0,0,1,.338-.274l.229-.084.357-.147h.884a2.349,2.349,0,0,1,1.848,1.263l4.659,9.41a2.334,2.334,0,0,0,1.743,1.282l10.436,1.518a2.382,2.382,0,0,1,1.911,1.579,2.291,2.291,0,0,1-.609,2.379Z" transform="translate(-601.999 -335.5)" fill="#dbe9f2"/>
</svg>
