<svg id="Group_20634" data-name="Group 20634" xmlns="http://www.w3.org/2000/svg" width="52" height="52" viewBox="0 0 52 52">
  <circle id="Ellipse_203" data-name="Ellipse 203" cx="26" cy="26" r="26" fill="rgba(219,233,242,0.3)"/>
  <path id="Union_10" data-name="Union 10" d="M14.117,21a2.942,2.942,0,1,1,2.941,3A2.971,2.971,0,0,1,14.117,21ZM5.294,13.8l8.823,5.4ZM0,11.4a2.971,2.971,0,0,1,2.941-3,3,3,0,0,1,0,6A2.971,2.971,0,0,1,0,11.4ZM14.117,4.8,5.883,9.6Zm0-1.8A2.942,2.942,0,1,1,20,3a2.942,2.942,0,1,1-5.883,0Z" transform="translate(15 14)" fill="#1d72db" stroke="#1d72db" stroke-width="1.5"/>
</svg>
