<svg xmlns="http://www.w3.org/2000/svg" width="52" height="52" viewBox="0 0 52 52">
  <g id="Group_19252" data-name="Group 19252" transform="translate(-1107 -164)">
    <rect id="Rectangle_1847" data-name="Rectangle 1847" width="52" height="52" rx="26" transform="translate(1107 164)" fill="#ffff"/>
    <path id="Path_1527" data-name="Path 1527" d="M616.542,223.5a6.12,6.12,0,0,1,1.953.305c3.875,1.263,5.272,5.526,4.105,9.253a13.4,13.4,0,0,1-3.159,5.062,40.4,40.4,0,0,1-6.648,5.221l-.262.159-.273-.169a40.015,40.015,0,0,1-6.687-5.221,13.618,13.618,0,0,1-3.161-5.052c-1.186-3.726.21-7.989,4.127-9.275a4.737,4.737,0,0,1,.934-.22h.126a6.075,6.075,0,0,1,.882-.063h.116a6.535,6.535,0,0,1,1.923.347h.062a.369.369,0,0,1,.095.062,3.7,3.7,0,0,1,.661.275l.4.179a2.858,2.858,0,0,1,.3.2c.059.043.112.082.153.107l.051.031a2.562,2.562,0,0,1,.264.168A6.565,6.565,0,0,1,616.542,223.5Z" transform="translate(520.5 -42.501)" fill="#50bf97" fill-rule="evenodd"/>
  </g>
</svg>
