<svg xmlns="http://www.w3.org/2000/svg" width="112.464" height="243.904" viewBox="0 0 112.464 243.904">
  <g id="pointing" transform="translate(0)">
    <g id="Group_19706" data-name="Group 19706" transform="translate(36.679 226.421)">
      <g id="Group_19705" data-name="Group 19705" transform="translate(0)">
        <path id="Path_15327" data-name="Path 15327" d="M2226.488,1367.245a38.1,38.1,0,0,1,4.021-3.521l1.421-5.733h7.577l.451,8.257c.317,2.368-1.56,4.657-5.282,4.382S2226.488,1367.245,2226.488,1367.245Z" transform="translate(-2218.232 -1357.991)" fill="#999"/>
        <path id="Path_15328" data-name="Path 15328" d="M2221.638,1392.674c.733-.916,3.24-1.552,3.689-1.752,1.36-.6,5.551-5.069,5.551-5.069,2.662-1.359,4.216-.951,5.771.464,1.024.932.75,1.849,1.189,2.76,0,0,3.761-.869,4.255-1.724.722-1.249.97-1.615,1.751-.674.184.222.3,9.7.3,9.7l-21.782.286S2220.452,1394.156,2221.638,1392.674Z" transform="translate(-2221.25 -1379.178)"/>
      </g>
    </g>
    <g id="Group_19707" data-name="Group 19707" transform="translate(86.469 227.341)">
      <path id="Path_15329" data-name="Path 15329" d="M2035.608,1372.507l.583-10.261h7.408a52.527,52.527,0,0,0,1.166,5.91c.583,1.831,3.413,4.079,3.413,5.161S2035.608,1376.109,2035.608,1372.507Z" transform="translate(-2034.954 -1362.247)" fill="#999"/>
      <path id="Path_15330" data-name="Path 15330" d="M2035.556,1388.241c0,.011-.01.019-.014.029a18.417,18.417,0,0,1,2.963,3.4,4.012,4.012,0,0,1,.131,3.548,2.792,2.792,0,0,1-1.138,1.054h-14.278c-.444-1.886.207-6.835.207-7.311s.8-.794,1.195-1.19a2.769,2.769,0,0,1,1.5-2.795c.76-.406,3.99-.463,5.454-.453A4.036,4.036,0,0,1,2035.556,1388.241Z" transform="translate(-2023.064 -1379.706)"/>
    </g>
    <g id="Group_19708" data-name="Group 19708" transform="translate(82.362 167.041)">
      <path id="Path_15331" data-name="Path 15331" d="M2056.89,1088.644c-.244-7.224-11.4-6.746-13.247-1.362-.929,2.713,1.4,16.392,1.45,18.85s2.437,40.4,2.437,40.4a43.53,43.53,0,0,0,10.449-.216s1.276-37.614,1.06-44A72.42,72.42,0,0,0,2056.89,1088.644Z" transform="translate(-2043.424 -1083.229)" fill="#211f34"/>
    </g>
    <g id="Group_19709" data-name="Group 19709" transform="translate(48.776 165.567)">
      <path id="Path_15332" data-name="Path 15332" d="M2202.292,1081.639c.624-7.2-10.511-6.344-12.988-1.22-1.248,2.582-1.888,15.912-2.132,18.358s-1.511,41.255-1.511,41.255a103.148,103.148,0,0,0,10.415-.039s7.436-39.569,7.987-45.935A31.626,31.626,0,0,0,2202.292,1081.639Z" transform="translate(-2185.661 -1076.406)" fill="#211f34"/>
    </g>
    <path id="Path_15333" data-name="Path 15333" d="M2242.721,553.413s-5.908-5.638-13.365.94c-9.544,8.42-23.847,22.678-25.9,25.111s4.534,12.738,10,8.707C2218.107,584.736,2243.776,561.4,2242.721,553.413Z" transform="translate(-2179.252 -499.109)" fill="#d9e6fa"/>
    <g id="Group_19720" data-name="Group 19720" transform="translate(0 38.417)">
      <g id="Group_19719" data-name="Group 19719" transform="translate(0 0)">
        <path id="Path_15334" data-name="Path 15334" d="M2382,538.98l3.064,10.731,7.25-2.07-4.05-10.214Z" transform="translate(-2367.477 -526.758)" fill="#f0c7ad"/>
        <g id="Group_19718" data-name="Group 19718">
          <g id="Group_19714" data-name="Group 19714">
            <g id="Group_19712" data-name="Group 19712">
              <g id="Group_19710" data-name="Group 19710" transform="translate(11.221)">
                <path id="Path_15335" data-name="Path 15335" d="M2417.6,493.143s-6.061-5.763-6.822-5.022c-1.686,1.641,1.338,3.806,2.046,4.957s1.849,3.451,2.008,3.761S2418.6,493.9,2417.6,493.143Z" transform="translate(-2410.276 -488.055)" fill="#f0c7ad"/>
              </g>
              <g id="Group_19711" data-name="Group 19711" transform="translate(0 3.228)">
                <path id="Path_15336" data-name="Path 15336" d="M2413.161,503.756s-.33,1.583-3.191,1.008c-3.752-.753-6.425-1.039-9.106-1.675-2.2-.521-2.56,1.153-.32,1.851,1.731.539,6.435,1.853,8.118,2.538.946.385.813.75-.173,1-.65.165,2.511,4.787,2.908,5.349.579.82,1.573,1.434,3.8.441,1.984-.883,4.449-1.5,4.942-4.368C2420.678,506.786,2415.377,501.811,2413.161,503.756Z" transform="translate(-2399.03 -502.991)" fill="#f0c7ad"/>
              </g>
            </g>
            <g id="Group_19713" data-name="Group 19713" transform="translate(10.252 5.862)">
              <path id="Path_15337" data-name="Path 15337" d="M2419.105,520.664a4.209,4.209,0,0,0,6.253,1.168c-.889-1.581-2.307-4.631-1.89-6.647a.161.161,0,0,0-.039-.005C2423.29,515.177,2417.122,516.508,2419.105,520.664Z" transform="translate(-2418.713 -515.179)" fill="#e3a781"/>
            </g>
          </g>
          <g id="Group_19715" data-name="Group 19715" transform="translate(6.976 7.089)">
            <path id="Path_15338" data-name="Path 15338" d="M2429.019,520.961s2.453.589,2.764.632,2.07.157,2.94.276,1.234,1.626-1.081,1.879a11.584,11.584,0,0,1-2.876.078c-.719-.1-2.844-.516-3.261-1.066S2427.375,520.419,2429.019,520.961Z" transform="translate(-2427.334 -520.86)" fill="#f0c7ad"/>
          </g>
          <g id="Group_19716" data-name="Group 19716" transform="translate(8.676 9.703)">
            <path id="Path_15339" data-name="Path 15339" d="M2424.879,533.019s2.21.433,2.489.455,1.851.026,2.631.09,1.165,1.544-.889,1.942a9.3,9.3,0,0,1-2.559.259c-.645-.053-2.555-.335-2.949-.857S2423.393,532.583,2424.879,533.019Z" transform="translate(-2423.423 -532.952)" fill="#f0c7ad"/>
          </g>
          <g id="Group_19717" data-name="Group 19717" transform="translate(9.693 11.854)">
            <path id="Path_15340" data-name="Path 15340" d="M2425.955,542.968s1.806.385,2.034.4,1.515.005,2.154.057.938,1.442-.748,1.838a6.7,6.7,0,0,1-2.1.27c-.527-.043-2.089-.29-2.407-.777S2424.742,542.572,2425.955,542.968Z" transform="translate(-2424.75 -542.909)" fill="#f0c7ad"/>
          </g>
        </g>
      </g>
      <path id="Path_15341" data-name="Path 15341" d="M2329.742,555.123s8.151,24.255,10.139,30.436c2.329,7.24,14.979,3.367,12.75-2.861-1.964-5.489-12.188-31.895-12.188-31.895Z" transform="translate(-2316.769 -537.242)" fill="#d9e6fa"/>
    </g>
    <rect id="Rectangle_1990" data-name="Rectangle 1990" width="13.456" height="20.1" transform="translate(67.821 35.034)" fill="#e0ab89"/>
    <g id="Group_19736" data-name="Group 19736" transform="translate(61.789 0)">
      <g id="Group_19722" data-name="Group 19722" transform="translate(0 3.721)">
        <g id="Group_19721" data-name="Group 19721" transform="translate(23.018 22.479)">
          <path id="Path_15342" data-name="Path 15342" d="M2065.288,439.816a17.479,17.479,0,0,0,4.313-.607,6.151,6.151,0,0,0,3.461-2.508,3.8,3.8,0,0,0-.014-4.119,2.965,2.965,0,0,0-3.844-.621C2068.6,432.311,2064.392,439.867,2065.288,439.816Z" transform="translate(-2065.163 -431.527)" fill="#f0c7ad"/>
        </g>
        <path id="Path_15343" data-name="Path 15343" d="M2087.673,329.035c-.224-.072-2.381-.649-2.611-.7-7.044-1.525-13.92-2.109-15.819,9.061,0,0-2.258,12.8-2.3,15.386a11.494,11.494,0,0,0,.92,3.9,24.825,24.825,0,0,0,2.625,5.278c1.334,2.008,3.062,3.9,5.434,4.531a9.178,9.178,0,0,0,5.987-.346,22.036,22.036,0,0,0,5.427-3.1,17.29,17.29,0,0,0,3.512-3.311,4.307,4.307,0,0,0,.315-.475c1.255-2.259,5.691-14.479,5.691-14.479C2100.786,334.159,2094.538,331.232,2087.673,329.035Z" transform="translate(-2066.943 -327.51)" fill="#f0c7ad"/>
        <path id="Path_15344" data-name="Path 15344" d="M2087.673,329.035c-.224-.072-2.381-.649-2.611-.7-7.044-1.525-13.92-2.109-15.819,9.061,0,0-2.258,12.8-2.3,15.386a11.494,11.494,0,0,0,.92,3.9,24.825,24.825,0,0,0,2.625,5.278c1.334,2.008,3.062,3.9,5.434,4.531a9.178,9.178,0,0,0,5.987-.346,22.036,22.036,0,0,0,5.427-3.1,17.29,17.29,0,0,0,3.512-3.311,4.307,4.307,0,0,0,.315-.475c1.255-2.259,5.691-14.479,5.691-14.479C2100.786,334.159,2094.538,331.232,2087.673,329.035Z" transform="translate(-2066.943 -327.51)" fill="#f0c7ad"/>
      </g>
      <g id="Group_19734" data-name="Group 19734" transform="translate(4.525 17.29)">
        <g id="Group_19725" data-name="Group 19725" transform="translate(4.916 5.301)">
          <g id="Group_19724" data-name="Group 19724" transform="translate(0)">
            <g id="Group_19723" data-name="Group 19723">
              <path id="Path_15345" data-name="Path 15345" d="M2156.62,414.827s-2.993,3.714-2.946,4.552c.083,1.44,2.355,1.587,2.355,1.587s-1.7-1.009-1.44-1.96A37.68,37.68,0,0,1,2156.62,414.827Z" transform="translate(-2153.674 -414.827)"/>
            </g>
          </g>
        </g>
        <g id="Group_19727" data-name="Group 19727" transform="translate(1.175 10.959)">
          <g id="Group_19726" data-name="Group 19726">
            <path id="Path_15346" data-name="Path 15346" d="M2136.405,441.011a20.967,20.967,0,0,0,4.957,2.244,34.666,34.666,0,0,0,5.4.363c.338.085-2.754,5.017-6.363,4.151C2136.81,446.906,2136.18,440.954,2136.405,441.011Z" transform="translate(-2136.365 -441.01)" fill="#fff"/>
          </g>
        </g>
        <g id="Group_19729" data-name="Group 19729" transform="translate(0)">
          <g id="Group_19728" data-name="Group 19728">
            <path id="Path_15347" data-name="Path 15347" d="M2165.841,390.952c.029-.017.057-.032.085-.046a4.449,4.449,0,0,1,4.493,0,.589.589,0,0,1,.3.363,3.254,3.254,0,0,1-.172,1.577,5.213,5.213,0,0,0-5.1-1.114,1.089,1.089,0,0,1,.173-.579A.667.667,0,0,1,2165.841,390.952Z" transform="translate(-2165.451 -390.298)"/>
          </g>
        </g>
        <g id="Group_19731" data-name="Group 19731" transform="translate(12.215 2.836)">
          <g id="Group_19730" data-name="Group 19730">
            <path id="Path_15348" data-name="Path 15348" d="M2114.89,405.747c-.016-.029-.033-.056-.051-.083a4.45,4.45,0,0,0-3.893-2.243.589.589,0,0,0-.444.163,3.247,3.247,0,0,0-.639,1.452,5.213,5.213,0,0,1,4.973,1.58,1.084,1.084,0,0,0,.139-.588A.67.67,0,0,0,2114.89,405.747Z" transform="translate(-2109.865 -403.421)"/>
          </g>
        </g>
        <g id="Group_19732" data-name="Group 19732" transform="translate(0.642 3.028)">
          <path id="Path_15349" data-name="Path 15349" d="M2176.115,406.094a1.308,1.308,0,1,0-2.51-.671l-.1.365-.3,1.121c-.207.776.338,1.209.976,1.38s1.327.067,1.535-.708l.3-1.121Z" transform="translate(-2173.162 -404.308)"/>
          <path id="Path_15350" data-name="Path 15350" d="M2175.657,411.2a.117.117,0,1,1-.083-.144A.117.117,0,0,1,2175.657,411.2Z" transform="translate(-2173.142 -409.591)" fill="#fff"/>
        </g>
        <g id="Group_19733" data-name="Group 19733" transform="translate(12.128 6.101)">
          <path id="Path_15351" data-name="Path 15351" d="M2122.967,420.313a1.308,1.308,0,1,0-2.51-.672l-.1.365-.3,1.121c-.207.776.338,1.209.976,1.38s1.327.068,1.534-.708l.3-1.121C2122.885,420.616,2122.95,420.375,2122.967,420.313Z" transform="translate(-2120.014 -418.527)"/>
          <path id="Path_15352" data-name="Path 15352" d="M2122.508,425.414a.117.117,0,1,1-.083-.143A.117.117,0,0,1,2122.508,425.414Z" transform="translate(-2119.993 -423.81)" fill="#fff"/>
        </g>
      </g>
      <g id="Group_19735" data-name="Group 19735" transform="translate(0.197)">
        <path id="Path_15353" data-name="Path 15353" d="M2089.316,339.343l-.752,2.023a8.251,8.251,0,0,1-1.2-5.849,64.031,64.031,0,0,1,1.5-6.32,6.229,6.229,0,0,0,.162-2.277,9.476,9.476,0,0,1-5.565,1.182,13.313,13.313,0,0,0,4.312-4.162,21.35,21.35,0,0,1-21.2,1.286,8.664,8.664,0,0,0,4.466-4.75,8.5,8.5,0,0,0-4.712,4.724c-.97,2.07-1.472,4.326-2.3,6.454a4.691,4.691,0,0,1-1.279,2.021,2.19,2.19,0,0,1-.781.4c-.262-4.28-.535-8.64.475-12.81,1-4.112,3.447-8.086,7.28-9.878a14.754,14.754,0,0,1,9.913-.466,58.4,58.4,0,0,1,9.368,3.808c1.511.692,3.557,1.247,4.619-.032a13.592,13.592,0,0,1-1.027,6.419,6.73,6.73,0,0,1,1.15,3.112c.251,2.475-.629,4.909-1.5,7.24Z" transform="translate(-2061.716 -310.292)"/>
        <path id="Path_15354" data-name="Path 15354" d="M2082.223,340.145c1.425,0,2.852-.05,4.262-.05a17.343,17.343,0,0,1-4.346,1.482C2082.17,341.1,2082.2,340.623,2082.223,340.145Z" transform="translate(-2058.835 -333.654)" fill="#4d4d4d"/>
        <path id="Path_15355" data-name="Path 15355" d="M2120.655,313.651a10.844,10.844,0,0,1,1.186-.471c1.231,2.641,4.713,4.159,7.359,4.981a16.763,16.763,0,0,0,3.634.745c-.032.649-.065,1.3-.11,1.945a26.28,26.28,0,0,1-8.66-1.258,37.674,37.674,0,0,1-7.343-2.873A11.6,11.6,0,0,1,2120.655,313.651Z" transform="translate(-2112.658 -312.556)" fill="#4d4d4d"/>
      </g>
    </g>
    <path id="Path_15356" data-name="Path 15356" d="M2141.71,835.027c.546,13.793-.351,18.489.2,32.283.38,5.135-.607,14.7.017,17.369.872,3.729,13.977,5.849,15.05-2.735,1.595-16.3,2.2-26.317,5.6-42.127l4.793-.371V819.689s-22.776-2.98-23.568-.928S2141.71,835.027,2141.71,835.027Z" transform="translate(-2090.607 -708.309)" fill="#2c2945"/>
    <path id="Path_15357" data-name="Path 15357" d="M2073.356,837.259c1.062,13.754,3.551,45.136,2.639,49.534-.778,3.75-14.416,10.987-14.906-3.523-.734-16.364-4.447-27.7-7.7-42.321l-3.923-2.882-1.641-17.514s22.9-1.777,23.585.314S2073.356,837.259,2073.356,837.259Z" transform="translate(-1979.14 -709.727)" fill="#2c2945"/>
    <path id="Path_15358" data-name="Path 15358" d="M2082.668,832.753a60.136,60.136,0,0,1-20.173-4.416c.436-3.992,1-8.491,1.417-9.577.527-1.364,10.772-.5,17.579.226,5.667-.379,20.938-1.239,21.494.462.462,1.415,1.191,8.42,1.614,12.8C2098.708,832.871,2095.332,833.255,2082.668,832.753Z" transform="translate(-2010.718 -708.309)" fill="#211f34"/>
    <g id="Group_19737" data-name="Group 19737" transform="translate(50.975 47.341)">
      <path id="Path_15359" data-name="Path 15359" d="M2055.313,529.349s-12.356,4.05-15.174,6.671,0,22.4,0,25.493-1.252,30.973-1.252,34.547,7.4,6.6,23.286,6.6,20.752-5.886,20.752-7.792-2.306-21.919-2.306-24.54,6.277-28.68,6.277-31.539-17.288-9.441-17.288-9.441l-11.319,6.129Z" transform="translate(-2038.886 -529.349)" fill="#d9e6fa"/>
      <path id="Path_15360" data-name="Path 15360" d="M2063.882,693.109c0-5.852.239-11.585-.12-17.438-.119-1.433-.6-2.986-.119-4.419,1.678-4.947,3.618-9.633,5.481-14.443-1.39,6.386-2.649,12.26-2.649,13.434,0,2.621,2.306,22.634,2.306,24.54,0,1.557-3.252,5.771-13.107,7.261A74.9,74.9,0,0,0,2063.882,693.109Z" transform="translate(-2024.743 -629.263)" fill="#c9d5e8"/>
      <path id="Path_15361" data-name="Path 15361" d="M2249.553,614.241a16.4,16.4,0,0,1,1.968,4.891s.241,19.468.241,20.663c-.119,8.48-.239,16.841.12,25.321q.022.395.04.791c-1.687-.978-2.512-2.109-2.512-3.3,0-3.574,1.253-31.45,1.253-34.547C2250.663,626.429,2249.882,620.179,2249.553,614.241Z" transform="translate(-2249.41 -595.895)" fill="#c9d5e8"/>
    </g>
    <path id="Path_15362" data-name="Path 15362" d="M1977.6,555.425s8.652-2.864,12.009,7.339c4.3,13.059,9.55,35.332,10.23,38.717,1.146,5.705-11.039,8.158-12.574,4.172C1985.228,600.369,1972.807,562.372,1977.6,555.425Z" transform="translate(-1887.448 -502.158)" fill="#d9e6fa"/>
    <g id="Group_19738" data-name="Group 19738" transform="translate(60.714 46.789)">
      <path id="Path_15363" data-name="Path 15363" d="M2165.24,557.711l-5.363,5.055,2.148,4.808-6.448,40.994,5.6,8.718,6.389-8.3-2.326-40.917,3.387-4.937Z" transform="translate(-2155.577 -551.03)" fill="#f44412"/>
      <path id="Path_15364" data-name="Path 15364" d="M2174.908,527.546a9.766,9.766,0,0,0-3.194,1.423c-.789.789-.33,12.156-.33,12.156l6.3-7.06Z" transform="translate(-2168.02 -527.384)" fill="#e9eef6"/>
      <path id="Path_15365" data-name="Path 15365" d="M2117.041,526.8a11.688,11.688,0,0,1,3.027,2.256c.685.881-10.614,12.585-10.614,12.585l-3.459-8.16Z" transform="translate(-2096.333 -526.797)" fill="#e9eef6"/>
    </g>
    <g id="Group_19743" data-name="Group 19743" transform="translate(49.162 64.989)">
      <g id="Group_19739" data-name="Group 19739" transform="translate(0 0)">
        <path id="Path_15366" data-name="Path 15366" d="M2147.772,613.236l-1.081-2.224-32.457,18.4,5.39.681S2129.435,630.426,2147.772,613.236Z" transform="translate(-2114.235 -611.012)" fill="#c1272d"/>
      </g>
      <g id="Group_19740" data-name="Group 19740" transform="translate(0 18.401)">
        <path id="Path_15367" data-name="Path 15367" d="M2142.641,731.447l-5.717-1.219-29.235-34.07,5.944.6Z" transform="translate(-2107.689 -696.158)" fill="#911d22"/>
      </g>
      <g id="Group_19741" data-name="Group 19741" transform="translate(2.982 20.684)">
        <path id="Path_15368" data-name="Path 15368" d="M2207.868,706.72l3.236.3,7.084,8.556-3.2-.215Z" transform="translate(-2207.868 -706.72)" fill="#e6e6e6"/>
      </g>
      <g id="Group_19742" data-name="Group 19742" transform="translate(5.587 0.717)">
        <path id="Path_15369" data-name="Path 15369" d="M1999.948,632.575s15.874-11.452,30.467-18.247l22.183,39.838L2029.313,667.3Z" transform="translate(-1999.948 -614.328)" fill="#ed1c24"/>
      </g>
    </g>
    <g id="Group_19756" data-name="Group 19756" transform="translate(58.342 90.653)">
      <g id="hand" transform="translate(0)">
        <g id="Group_19744" data-name="Group 19744" transform="translate(1.423)">
          <path id="Path_15370" data-name="Path 15370" d="M2180.118,732.4a14.584,14.584,0,0,0-5.99-2.575c-1.155-.226-1.631.138-2.652,1.289-1.278,1.441-1.818,3.941-1.179,4.158,2.535.862,3.589-2.028,4.122-1.43C2177.583,737.391,2182.918,734.159,2180.118,732.4Z" transform="translate(-2170.028 -729.764)" fill="#f0c7ad"/>
        </g>
        <g id="Group_19755" data-name="Group 19755" transform="translate(0 2.006)">
          <g id="Group_19753" data-name="Group 19753">
            <g id="Group_19747" data-name="Group 19747" transform="translate(2.626)">
              <g id="Group_19746" data-name="Group 19746">
                <g id="Group_19745" data-name="Group 19745">
                  <path id="Path_15371" data-name="Path 15371" d="M2162.77,739.08c-1.663.14-1.764,1.829-5.208,7.9-.127.224,7.417,2.892,10.64,1.046C2171.752,745.987,2169.775,738.49,2162.77,739.08Z" transform="translate(-2157.561 -739.047)" fill="#f0c7ad"/>
                </g>
              </g>
            </g>
            <g id="Group_19752" data-name="Group 19752" transform="translate(0 0.105)">
              <g id="Group_19748" data-name="Group 19748" transform="translate(0.809 3.309)">
                <path id="Path_15372" data-name="Path 15372" d="M2196,757.575l-4.432,1.38a1.4,1.4,0,0,1-1.751-.92h0a1.4,1.4,0,0,1,.919-1.751l4.432-1.38a1.4,1.4,0,0,1,1.751.92h0A1.4,1.4,0,0,1,2196,757.575Z" transform="translate(-2189.753 -754.842)" fill="#f0c7ad"/>
              </g>
              <g id="Group_19749" data-name="Group 19749">
                <path id="Path_15373" data-name="Path 15373" d="M2198.007,742.977l-4.431,1.38a1.4,1.4,0,0,1-1.751-.92h0a1.4,1.4,0,0,1,.92-1.751l6.372-2.124c.734-.229-.419.93-.19,1.664h0A1.4,1.4,0,0,1,2198.007,742.977Z" transform="translate(-2191.761 -739.532)" fill="#f0c7ad"/>
              </g>
              <g id="Group_19750" data-name="Group 19750" transform="translate(2.233 5.385)">
                <path id="Path_15374" data-name="Path 15374" d="M2189.409,767.181l-4.432,1.38a1.4,1.4,0,0,1-1.751-.92h0a1.4,1.4,0,0,1,.92-1.751l4.432-1.38a1.4,1.4,0,0,1,1.751.92h0A1.4,1.4,0,0,1,2189.409,767.181Z" transform="translate(-2183.163 -764.448)" fill="#f0c7ad"/>
              </g>
              <g id="Group_19751" data-name="Group 19751" transform="translate(4.537 7.916)">
                <path id="Path_15375" data-name="Path 15375" d="M2171.879,778.392l-3.623,1.128a1.147,1.147,0,0,1-1.432-.752h0a1.147,1.147,0,0,1,.752-1.432l3.624-1.129c.6-.187,3.851.221,4.038.822C2175.238,777.03,2175.437,777.436,2171.879,778.392Z" transform="translate(-2166.772 -776.162)" fill="#f0c7ad"/>
              </g>
            </g>
          </g>
          <g id="Group_19754" data-name="Group 19754" transform="translate(1.524 1.208)">
            <path id="Path_15376" data-name="Path 15376" d="M2205.489,745.472l3.111-.833s-2.5.62-2.894.125A1.416,1.416,0,0,0,2205.489,745.472Z" transform="translate(-2205.487 -744.639)" fill="#e3a781"/>
          </g>
        </g>
      </g>
      <path id="Path_15377" data-name="Path 15377" d="M2131.315,743.972l11.222.359,1.148,7.5-10.979-1.35Z" transform="translate(-2123.019 -740.901)" fill="#f0c7ad"/>
    </g>
    <path id="Path_15378" data-name="Path 15378" d="M1977.636,735.23s27.16,1.941,33.8,1.919,5.679,13.855-.285,13.659-34.641-2.214-34.641-2.214Z" transform="translate(-1903.563 -643.396)" fill="#d9e6fa"/>
  </g>
</svg>
