<svg xmlns="http://www.w3.org/2000/svg" width="48.344" height="33.841" viewBox="0 0 48.344 33.841">
  <g id="noun_bedroom_3937590" transform="translate(-14.5 -38.5)" fill="rgba(80,191,151,0)" stroke-linejoin="round">
    <path d="M 58.08439636230469 71.84078979492188 L 58.01639556884766 71.84078979492188 C 57.2020263671875 71.84078979492188 56.46167755126953 71.27565002441406 56.25600814819336 70.49701690673828 L 56.25527572631836 70.49424743652344 L 56.25450897216797 70.49148559570312 L 55.61361312866211 68.17311096191406 L 59.89620590209961 68.17311096191406 L 59.89620590209961 70.00695037841797 C 59.89620590209961 70.47279357910156 59.69113540649414 70.96923065185547 59.36101531982422 71.30250549316406 C 59.03213882446289 71.63452911376953 58.5429573059082 71.84078979492188 58.08439636230469 71.84078979492188 Z M 19.25961685180664 71.84078979492188 L 19.19161796569824 71.84078979492188 C 18.73304748535156 71.84078979492188 18.24386787414551 71.63452911376953 17.91497611999512 71.30249786376953 C 17.58487701416016 70.96923828125 17.37980651855469 70.47280883789062 17.37980651855469 70.00695037841797 L 17.37980651855469 68.17311096191406 L 21.66238975524902 68.17311096191406 L 21.02149772644043 70.49148559570312 L 21.02072715759277 70.49424743652344 L 21.01999664306641 70.49701690673828 C 20.81432723999023 71.27565002441406 20.07398796081543 71.84078979492188 19.25961685180664 71.84078979492188 Z M 60.19221878051758 64.77058410644531 L 17.15178680419922 64.77058410644531 C 15.96528720855713 64.77058410644531 15.00000667572021 63.79397583007812 15.00000667572021 62.59355545043945 L 15.00000667572021 57.85719680786133 C 15.00000667572021 56.69746780395508 16.00550651550293 55.68015670776367 17.15178680419922 55.68015670776367 L 22.3873462677002 55.68015670776367 L 22.8873462677002 55.68015670776367 L 22.8873462677002 55.18015670776367 L 22.8873462677002 53.7386360168457 C 22.8873462677002 52.91670608520508 23.547607421875 52.24801635742188 24.35918617248535 52.24801635742188 L 33.06246566772461 52.24801635742188 C 33.87404632568359 52.24801635742188 34.53430557250977 52.91670608520508 34.53430557250977 53.7386360168457 L 34.53430557250977 55.18015670776367 L 34.53430557250977 55.68015670776367 L 35.03430557250977 55.68015670776367 L 42.30970764160156 55.68015670776367 L 42.80970764160156 55.68015670776367 L 42.80970764160156 55.18015670776367 L 42.80970764160156 53.7386360168457 C 42.80970764160156 52.91670608520508 43.46996688842773 52.24801635742188 44.28153610229492 52.24801635742188 L 52.91682815551758 52.24801635742188 C 53.72840881347656 52.24801635742188 54.38866806030273 52.91670608520508 54.38866806030273 53.7386360168457 L 54.38866806030273 55.18015670776367 L 54.38866806030273 55.68015670776367 L 54.88866806030273 55.68015670776367 L 60.12420654296875 55.68015670776367 C 61.33004760742188 55.68015670776367 62.28255844116211 56.62029647827148 62.34399795532227 57.86886978149414 L 62.34399795532227 62.59355545043945 C 62.34399795532227 63.75328826904297 61.33849716186523 64.77058410644531 60.19221878051758 64.77058410644531 Z M 60.9161262512207 52.39950561523438 C 60.67904281616211 52.36813354492188 60.43772506713867 52.34628677368164 60.19221878051758 52.34628677368164 L 57.590576171875 52.34628677368164 C 56.98535537719727 50.29498672485352 55.08156585693359 48.84551620483398 52.91682815551758 48.84551620483398 L 44.41751861572266 48.84551620483398 C 42.25278472900391 48.84551620483398 40.3489875793457 50.29499435424805 39.74375534057617 52.34628677368164 L 37.79344940185547 52.34628677368164 C 37.12922668457031 50.26625061035156 35.26329803466797 48.84551620483398 33.13045883178711 48.84551620483398 L 24.42718696594238 48.84551620483398 C 22.26244735717773 48.84551620483398 20.35863876342773 50.29499435424805 19.7534065246582 52.34628677368164 L 17.15178680419922 52.34628677368164 C 16.90628051757812 52.34628677368164 16.66496086120605 52.36813354492188 16.42787742614746 52.39950561523438 L 16.42787742614746 47.69811630249023 C 16.42787742614746 45.35193634033203 17.31821632385254 43.16100692749023 18.93489646911621 41.52893829345703 C 20.5502872467041 39.89812850952148 22.71814727783203 38.99999618530273 25.03913688659668 38.99999618530273 L 52.23686599731445 38.99999618530273 C 54.55783843994141 38.99999618530273 56.7256965637207 39.89812850952148 58.34110641479492 41.52893829345703 C 59.97756576538086 43.18097686767578 60.9161262512207 45.42955780029297 60.9161262512207 47.69811630249023 L 60.9161262512207 52.39950561523438 Z" stroke="none"/>
    <path d="M 58.08439636230469 71.34078979492188 C 58.40935516357422 71.34078979492188 58.77102661132812 71.18763732910156 59.00578689575195 70.95063781738281 C 59.24295806884766 70.71119689941406 59.39620590209961 70.34077453613281 59.39620590209961 70.00695037841797 L 59.39620590209961 68.67311096191406 L 56.27059555053711 68.67311096191406 L 56.7364387512207 70.35825347900391 C 56.73745727539062 70.36194610595703 56.73845672607422 70.36563873291016 56.73942565917969 70.36932373046875 C 56.88810729980469 70.93222808837891 57.42515563964844 71.34078979492188 58.01639556884766 71.34078979492188 L 58.08439636230469 71.34078979492188 M 19.25961685180664 71.34078979492188 C 19.85085678100586 71.34078979492188 20.38789749145508 70.93222808837891 20.53657722473145 70.36932373046875 C 20.53754615783691 70.36563873291016 20.53854751586914 70.36194610595703 20.5395679473877 70.35825347900391 L 21.00540924072266 68.67311096191406 L 17.87980651855469 68.67311096191406 L 17.87980651855469 70.00695037841797 C 17.87980651855469 70.34078979492188 18.03304672241211 70.71120452880859 18.27019691467285 70.95063018798828 C 18.50497627258301 71.18763732910156 18.86665725708008 71.34078979492188 19.19161796569824 71.34078979492188 L 19.25961685180664 71.34078979492188 M 60.19221878051758 64.27058410644531 C 61.07213592529297 64.27058410644531 61.84399795532227 63.4869270324707 61.84399795532227 62.59355545043945 L 61.84399795532227 57.88187408447266 C 61.79025650024414 56.89453506469727 61.06992721557617 56.18015670776367 60.12420654296875 56.18015670776367 L 54.88866806030273 56.18015670776367 C 54.33638763427734 56.18015670776367 53.88866806030273 55.73243713378906 53.88866806030273 55.18015670776367 L 53.88866806030273 53.7386360168457 C 53.88866806030273 53.19240570068359 53.45269775390625 52.74801635742188 52.91682815551758 52.74801635742188 L 44.28153610229492 52.74801635742188 C 43.74566650390625 52.74801635742188 43.30970764160156 53.19240570068359 43.30970764160156 53.7386360168457 L 43.30970764160156 55.18015670776367 C 43.30970764160156 55.73243713378906 42.86198806762695 56.18015670776367 42.30970764160156 56.18015670776367 L 35.03430557250977 56.18015670776367 C 34.48202896118164 56.18015670776367 34.03430557250977 55.73243713378906 34.03430557250977 55.18015670776367 L 34.03430557250977 53.7386360168457 C 34.03430557250977 53.19240570068359 33.59833526611328 52.74801635742188 33.06246566772461 52.74801635742188 L 24.35918617248535 52.74801635742188 C 23.82331657409668 52.74801635742188 23.3873462677002 53.19240570068359 23.3873462677002 53.7386360168457 L 23.3873462677002 55.18015670776367 C 23.3873462677002 55.73243713378906 22.93962669372559 56.18015670776367 22.3873462677002 56.18015670776367 L 17.15178680419922 56.18015670776367 C 16.2718677520752 56.18015670776367 15.50000667572021 56.96381759643555 15.50000667572021 57.85719680786133 L 15.50000667572021 62.59355545043945 C 15.50000667572021 63.51827621459961 16.24099731445312 64.27058410644531 17.15178680419922 64.27058410644531 L 60.19221878051758 64.27058410644531 M 60.4161262512207 51.8514289855957 L 60.4161262512207 47.69811630249023 C 60.4161262512207 45.56029891967773 59.53033828735352 43.43996810913086 57.98588562011719 41.88080596923828 C 56.46509552001953 40.34551620483398 54.42338562011719 39.49999618530273 52.23686599731445 39.49999618530273 L 25.03913688659668 39.49999618530273 C 22.85259628295898 39.49999618530273 20.81089782714844 40.34551620483398 19.29011726379395 41.88081741333008 C 17.76680755615234 43.41863632202148 16.92787742614746 45.48459625244141 16.92787742614746 47.69811630249023 L 16.92787742614746 51.8514289855957 C 17.00173187255859 51.84809875488281 17.07636070251465 51.84628677368164 17.15178680419922 51.84628677368164 L 19.39361381530762 51.84628677368164 C 20.16757392883301 49.77643966674805 22.16856384277344 48.34551620483398 24.42718696594238 48.34551620483398 L 33.13045883178711 48.34551620483398 C 35.36181259155273 48.34551620483398 37.32698059082031 49.75048828125 38.14641571044922 51.84628677368164 L 39.38396453857422 51.84628677368164 C 40.15792083740234 49.77643966674805 42.15890121459961 48.34551620483398 44.41751861572266 48.34551620483398 L 52.91682815551758 48.34551620483398 C 55.17544174194336 48.34551620483398 57.17642974853516 49.77643966674805 57.95037460327148 51.84628677368164 L 60.19221878051758 51.84628677368164 C 60.26764297485352 51.84628677368164 60.3422737121582 51.84809875488281 60.4161262512207 51.8514289855957 M 58.08439636230469 72.34078979492188 L 58.01639556884766 72.34078979492188 C 56.99646759033203 72.34078979492188 56.0445556640625 71.65436553955078 55.77258682250977 70.62471008300781 L 54.95664596557617 67.67311096191406 L 60.12420654296875 67.67311096191406 C 60.26020812988281 67.67311096191406 60.32819747924805 67.67311096191406 60.39620590209961 67.67311096191406 L 60.39620590209961 70.00695037841797 C 60.39620590209961 70.62471008300781 60.12420654296875 71.24250793457031 59.71625518798828 71.65436553955078 C 59.30828857421875 72.06623077392578 58.69633865356445 72.34078979492188 58.08439636230469 72.34078979492188 Z M 19.25961685180664 72.34078979492188 L 19.19161796569824 72.34078979492188 C 18.57966613769531 72.34078979492188 17.96771621704102 72.06623077392578 17.55974769592285 71.65436553955078 C 17.15178680419922 71.24250793457031 16.87980651855469 70.62471008300781 16.87980651855469 70.00695037841797 L 16.87980651855469 67.67311096191406 C 16.94779777526855 67.67311096191406 17.08378791809082 67.67311096191406 17.15178680419922 67.67311096191406 L 22.31935691833496 67.67311096191406 L 21.50341796875 70.62471008300781 C 21.23144721984863 71.65436553955078 20.27951622009277 72.34078979492188 19.25961685180664 72.34078979492188 Z M 60.19221878051758 65.27058410644531 L 17.15178680419922 65.27058410644531 C 15.72390747070312 65.27058410644531 14.50000667572021 64.10368347167969 14.50000667572021 62.59355545043945 L 14.50000667572021 57.85719680786133 C 14.50000667572021 56.41571807861328 15.72390747070312 55.18015670776367 17.15178680419922 55.18015670776367 L 22.3873462677002 55.18015670776367 L 22.3873462677002 53.7386360168457 C 22.3873462677002 52.64035797119141 23.27127647399902 51.74801635742188 24.35918617248535 51.74801635742188 L 33.06246566772461 51.74801635742188 C 34.15037536621094 51.74801635742188 35.03430557250977 52.64035797119141 35.03430557250977 53.7386360168457 L 35.03430557250977 55.18015670776367 L 42.30970764160156 55.18015670776367 L 42.30970764160156 53.7386360168457 C 42.30970764160156 52.64035797119141 43.19362640380859 51.74801635742188 44.28153610229492 51.74801635742188 L 52.91682815551758 51.74801635742188 C 54.00472640991211 51.74801635742188 54.88866806030273 52.64035797119141 54.88866806030273 53.7386360168457 L 54.88866806030273 55.18015670776367 L 60.12420654296875 55.18015670776367 C 61.6201057434082 55.18015670776367 62.77599716186523 56.34706878662109 62.84399795532227 57.85719680786133 L 62.84399795532227 62.59355545043945 C 62.84399795532227 64.03504943847656 61.62008666992188 65.27058410644531 60.19221878051758 65.27058410644531 Z M 61.4161262512207 52.98357772827148 C 61.00814819335938 52.9149284362793 60.60018539428711 52.84628677368164 60.19221878051758 52.84628677368164 L 57.20045852661133 52.84628677368164 C 56.79249572753906 50.85563659667969 55.02463531494141 49.34551620483398 52.91682815551758 49.34551620483398 L 44.41751861572266 49.34551620483398 C 42.30970764160156 49.34551620483398 40.54184722900391 50.85563659667969 40.13387680053711 52.84628677368164 L 37.41409683227539 52.84628677368164 C 36.93814849853516 50.85563659667969 35.23827743530273 49.34551620483398 33.13045883178711 49.34551620483398 L 24.42718696594238 49.34551620483398 C 22.31935691833496 49.34551620483398 20.5514965057373 50.85563659667969 20.14352798461914 52.84628677368164 L 17.15178680419922 52.84628677368164 C 16.74381637573242 52.84628677368164 16.33585739135742 52.9149284362793 15.92787742614746 52.98357772827148 L 15.92787742614746 47.69811630249023 C 15.92787742614746 45.22695541381836 16.87980651855469 42.89311599731445 18.57966613769531 41.17706680297852 C 20.27951622009277 39.46098709106445 22.59133720397949 38.49999618530273 25.03913688659668 38.49999618530273 L 52.23686599731445 38.49999618530273 C 54.68466567993164 38.49999618530273 56.99646759033203 39.46098709106445 58.69633865356445 41.17706680297852 C 60.39620590209961 42.89311599731445 61.4161262512207 45.22695541381836 61.4161262512207 47.69811630249023 L 61.4161262512207 52.98357772827148 Z" stroke="none" fill="#1d72db"/>
  </g>
</svg>
