<svg xmlns="http://www.w3.org/2000/svg" width="40.001" height="40" viewBox="0 0 40.001 40">
  <g id="Group_20470" data-name="Group 20470" transform="translate(-277.999 -1843)">
    <rect id="Rectangle_2098" data-name="Rectangle 2098" width="40" height="40" transform="translate(278 1843)" fill="none"/>
    <path id="Path_15655" data-name="Path 15655" d="M133.491,111.564V98.535a2.4,2.4,0,0,0-.606-1.616,1.961,1.961,0,0,0-1.463-.67H101.077a1.988,1.988,0,0,0-1.463.67,2.4,2.4,0,0,0-.606,1.616v13.029a3.742,3.742,0,0,0-2.759,3.733v9.143a.728.728,0,0,0,.69.762h2.069v2.286a.729.729,0,0,0,.69.762h2.759a.729.729,0,0,0,.69-.762V125.2h26.207v2.286a.728.728,0,0,0,.69.762H132.8a.728.728,0,0,0,.69-.762V125.2h2.069a.728.728,0,0,0,.69-.762V115.3a3.743,3.743,0,0,0-2.759-3.733Zm-33.1-13.029a.812.812,0,0,1,.2-.539.664.664,0,0,1,.488-.223h30.345a.666.666,0,0,1,.488.223.809.809,0,0,1,.2.539v12.952h-2.759v-3.809a2.188,2.188,0,0,0-2.069-2.286h-6.9a2.188,2.188,0,0,0-2.069,2.286v3.809H114.18v-3.809a2.188,2.188,0,0,0-2.069-2.286h-6.9a2.188,2.188,0,0,0-2.069,2.286v3.809h-2.759Zm27.586,12.952H119.7v-3.809a.729.729,0,0,1,.69-.762h6.9a.729.729,0,0,1,.69.762Zm-15.172,0h-8.276v-3.809a.729.729,0,0,1,.69-.762h6.9a.729.729,0,0,1,.69.762Zm-13.1,1.524h33.1a2.188,2.188,0,0,1,2.069,2.286v2.286H97.629V115.3A2.188,2.188,0,0,1,99.7,113.012Zm2.069,13.714h-1.379V125.2h1.379Zm30.345,0h-1.379V125.2h1.379Zm2.759-3.048H97.629v-4.571H134.87Z" transform="translate(181.75 1750.75)" fill="#1d72db"/>
  </g>
</svg>
