<svg xmlns="http://www.w3.org/2000/svg" width="40" height="40" viewBox="0 0 40 40">
  <path id="Union_6" data-name="Union 6" d="M34.88,40H28.172a.806.806,0,0,1-.792-.795v-.079c-.011-.593,0-1.191,0-1.789V31.659H24.77V39.2a.806.806,0,0,1-.792.795H16.32a.806.806,0,0,1-.792-.795v-.079c-.011-.593,0-1.191,0-1.789V31.659H12.459V39.2a.806.806,0,0,1-.792.795H4.009a.806.806,0,0,1-.793-.795v-.079c-.01-.593,0-1.191,0-1.789V31.43H.793a.792.792,0,0,1,0-1.585h2.35V27.23H.793a.792.792,0,1,1,0-1.584H3.216V16.122H.793a.792.792,0,1,1,0-1.584h2.35V11.923H.793a.792.792,0,0,1,0-1.584H3.216V4.959c0-.148-.01-.3,0-.45.032-.529.565-.895.919-1.238C5.18,2.254,6.232,1.243,7.277.226a.806.806,0,0,1,1.12,0l.475.461q1.679,1.62,3.354,3.245a.754.754,0,0,1,.217.427.733.733,0,0,1,.015.146v.064c.031,1.4,0,2.811,0,4.219v1.551h3.069V4.959c0-.148-.011-.3,0-.45.031-.529.565-.895.919-1.238,1.046-1.017,2.1-2.028,3.143-3.045a.806.806,0,0,1,1.12,0l.475.461q1.679,1.62,3.353,3.245a.755.755,0,0,1,.22.441.73.73,0,0,1,.012.132v.064c.032,1.4,0,2.811,0,4.219v1.551h2.61V4.959c0-.148-.011-.3,0-.45.031-.529.564-.895.919-1.238,1.046-1.017,2.1-2.028,3.142-3.045a.806.806,0,0,1,1.12,0l.475.461c1.12,1.08,2.235,2.165,3.354,3.245a.754.754,0,0,1,.217.427.733.733,0,0,1,.015.146v.064c.031,1.4,0,2.811,0,4.219v1.552h2.585a.792.792,0,1,1,0,1.584h-2.35v2.615h2.35a.792.792,0,1,1,0,1.585H36.622v9.752h2.585a.792.792,0,1,1,0,1.585h-2.35v2.614h2.35a.792.792,0,1,1,0,1.585H36.622V39.2A.806.806,0,0,1,35.83,40Zm-5.757-1.6H35.03c0-.211.007-.422.007-.63V4.829l-.242-.235Q33.4,3.244,32,1.89,30.483,3.355,28.97,4.824c0,.364-.006.732-.006,1.093V38.4Zm-11.852,0h5.908c0-.211.007-.422.007-.63V4.83l-.243-.236q-1.4-1.35-2.793-2.7-1.518,1.465-3.032,2.935c0,.364-.006.732-.006,1.093V38.4Zm-12.311,0h5.908c0-.211.007-.422.007-.63V4.829l-.243-.235q-1.4-1.349-2.793-2.7Q6.32,3.355,4.806,4.825c0,.364-.006.732-.006,1.093V38.4ZM27.38,30.075V27.461H24.77v2.615Zm-11.852,0V27.461H12.459v2.615Zm11.852-4.2V16.122H24.77v9.754Zm-11.852,0V16.122H12.459v9.754ZM27.38,14.537V11.922H24.77v2.615Zm-11.852,0V11.922H12.459v2.615Z" fill="#1d72db"/>
</svg>
