<svg xmlns="http://www.w3.org/2000/svg" width="30" height="30" viewBox="0 0 30 30">
  <g id="Group_20473" data-name="Group 20473" transform="translate(-1020 -1966)">
    <g id="Group_20648" data-name="Group 20648" transform="translate(1020 1966)">
      <rect id="Rectangle_2138" data-name="Rectangle 2138" width="30" height="30" fill="none"/>
      <g id="Group_20647" data-name="Group 20647" transform="translate(0 3)">
        <path id="Path_15739" data-name="Path 15739" d="M52.286,23.635a.451.451,0,0,1-.518.356.431.431,0,0,1-.38-.486l.828-5.047h-.834a.427.427,0,1,1,0-.852h6l1.287-5.627a.455.455,0,0,1,.54-.327.427.427,0,0,1,.349.506l-1.364,5.963a.449.449,0,0,1-.444.337h-.834l.828,5.047a.431.431,0,0,1-.38.486.451.451,0,0,1-.518-.356l-.29-1.769H52.577Zm4.126-2.62-.42-2.556H53.136l-.42,2.556Zm-20.2.852-.29,1.769a.451.451,0,0,1-.518.356.431.431,0,0,1-.38-.486l.828-5.047h-.834a.449.449,0,0,1-.444-.337l-1.364-5.963a.427.427,0,0,1,.349-.506.455.455,0,0,1,.54.327l1.287,5.627h6a.427.427,0,1,1,0,.852h-.834l.828,5.047a.431.431,0,0,1-.38.486.452.452,0,0,1-.518-.356l-.29-1.769Zm.14-.852h3.7l-.42-2.556H36.773ZM55.019,4.3V.848H46.837V4.3a2.17,2.17,0,0,1,1.818,2.087v1.7a.441.441,0,0,1-.455.426H44.564a.441.441,0,0,1-.455-.426v-1.7A2.17,2.17,0,0,1,45.928,4.3V.848H37.746V4.3a2.17,2.17,0,0,1,1.818,2.087v1.7a.441.441,0,0,1-.455.426H35.474a.441.441,0,0,1-.455-.426v-1.7A2.17,2.17,0,0,1,36.837,4.3V.848h-5a.441.441,0,0,1-.455-.426A.441.441,0,0,1,31.837,0H60.928a.441.441,0,0,1,.455.426.441.441,0,0,1-.455.426h-5V4.3a2.17,2.17,0,0,1,1.818,2.087v1.7a.441.441,0,0,1-.455.426H53.655A.441.441,0,0,1,53.2,8.09v-1.7A2.17,2.17,0,0,1,55.019,4.3ZM38.655,6.386a1.367,1.367,0,0,0-2.727,0V7.664h2.727Zm9.091,0a1.366,1.366,0,0,0-2.727,0V7.664h2.727Zm9.091,0a1.367,1.367,0,0,0-2.727,0V7.664h2.727Zm-10,16.759H48.2a.427.427,0,1,1,0,.852H44.564a.427.427,0,1,1,0-.852h1.364V15.477h-5a.427.427,0,1,1,0-.852H51.837a.427.427,0,1,1,0,.852h-5Z" transform="translate(-31.383 0.003)" fill="#1d72db"/>
      </g>
    </g>
  </g>
</svg>
