<svg xmlns="http://www.w3.org/2000/svg" width="42.888" height="31.115" viewBox="0 0 42.888 31.115">
  <g id="noun-cars-5022156" transform="translate(-77.283 -102.258)">
    <path id="Path_15137" data-name="Path 15137" d="M160.979,281.75H156.9a1.534,1.534,0,0,0-1.532,1.532v1.645a1.534,1.534,0,0,0,1.532,1.532h4.08a1.533,1.533,0,0,0,1.532-1.532v-1.645a1.533,1.533,0,0,0-1.532-1.532Zm0,3.176H156.9s0-1.647,0-1.645h4.08Z" transform="translate(-73.676 -163.781)" fill="#1d72db"/>
    <path id="Path_15138" data-name="Path 15138" d="M164.228,353.93H159.11a.766.766,0,0,0,0,1.532h5.118a.766.766,0,0,0,0-1.532Z" transform="translate(-76.406 -229.644)" fill="#1d72db"/>
    <path id="Path_15139" data-name="Path 15139" d="M468.639,281.75h-4.08a1.534,1.534,0,0,0-1.532,1.532v1.645a1.534,1.534,0,0,0,1.532,1.532h4.08a1.534,1.534,0,0,0,1.532-1.532v-1.645a1.534,1.534,0,0,0-1.532-1.532Zm0,3.176h-4.08v-1.645h4.08Z" transform="translate(-354.408 -163.781)" fill="#1d72db"/>
    <path id="Path_15140" data-name="Path 15140" d="M471.891,353.93h-5.117a.766.766,0,0,0,0,1.532h5.117a.766.766,0,0,0,0-1.532Z" transform="translate(-357.141 -229.644)" fill="#1d72db"/>
    <path id="Path_15141" data-name="Path 15141" d="M271.414,301.67a2.288,2.288,0,0,0-2.237-1.775H258.408a2.288,2.288,0,0,0-2.237,1.775l-.59,2.53a2.311,2.311,0,0,0,2.237,2.82h11.951a2.311,2.311,0,0,0,2.237-2.82Zm-1.046,3.529h0a.762.762,0,0,1-.6.29H257.817a.771.771,0,0,1-.746-.94l.59-2.53a.764.764,0,0,1,.746-.592c2.684,0,8.086,0,10.769,0a.764.764,0,0,1,.746.592l.591,2.53a.764.764,0,0,1-.146.65Z" transform="translate(-165.065 -180.338)" fill="#1d72db"/>
    <path id="Path_15142" data-name="Path 15142" d="M146.358,108.721h-2.613a1.817,1.817,0,0,0-1.587,1.2l-1.844-3.323a8.427,8.427,0,0,0-7.366-4.338h-13a8.428,8.428,0,0,0-7.367,4.338l-1.843,3.323h0a1.818,1.818,0,0,0-1.588-1.2h-2.613A1.533,1.533,0,0,0,105,110.252v1.642h0a1.533,1.533,0,0,0,1.532,1.532h1.2a3.462,3.462,0,0,0-1.4,2.652v9.716a3.044,3.044,0,0,0,1.563,2.666.739.739,0,0,0-.035.174v2.63a2.117,2.117,0,0,0,2.119,2.11h4a2.116,2.116,0,0,0,2.119-2.109V129.41c3.275.219,6.96.4,10.339.4s7.063-.177,10.338-.4v1.854a2.116,2.116,0,0,0,2.119,2.11h4a2.116,2.116,0,0,0,2.119-2.11v-2.63a.718.718,0,0,0-.035-.174,3.044,3.044,0,0,0,1.564-2.667v-9.716a3.46,3.46,0,0,0-1.4-2.652h1.2a1.533,1.533,0,0,0,1.532-1.532v-1.641a1.533,1.533,0,0,0-1.532-1.532Zm-32.441-1.382h0a6.9,6.9,0,0,1,6.027-3.549h13a6.9,6.9,0,0,1,6.027,3.549l2.079,3.748a110.192,110.192,0,0,1-14.608.811,110.135,110.135,0,0,1-14.608-.811Zm-7.383,4.555v-1.641h2.613l.685,1.137-.519.5Zm8.043,19.37a.576.576,0,0,1-.587.578h-4a.583.583,0,0,1-.588-.578v-2.394c1.381.129,3.165.285,5.177.433Zm28.329.578h-4a.576.576,0,0,1-.587-.578V129.3c2.011-.148,3.8-.3,5.176-.433v2.394h0a.583.583,0,0,1-.587.578Zm2.116-6.048h0a1.521,1.521,0,0,1-1.381,1.524c-3.769.358-11.014.957-17.195.957s-13.426-.6-17.195-.957a1.521,1.521,0,0,1-1.38-1.524v-9.716a1.54,1.54,0,0,1,.464-1.1c.531-.527,2.053-1.987,2.554-2.483a102.555,102.555,0,0,0,15.556.934A102.555,102.555,0,0,0,142,112.5c.516.489,2.023,1.975,2.554,2.482a1.54,1.54,0,0,1,.465,1.1Zm1.337-13.9h-2.778l-.52-.5.684-1.137h2.613Z" transform="translate(-27.72)" fill="#1d72db"/>
  </g>
</svg>
