<svg xmlns="http://www.w3.org/2000/svg" width="40" height="40" viewBox="0 0 40 40">
  <path id="Path_15713" data-name="Path 15713" d="M140.3,89.445v8.812h-1.205v-2.74h-1.058v-1.53l1.3-1.528-3.405-3.993-3.406,3.993,1.3,1.528v1.53h-1.058v29.5h6.319v-3.453H140.3v3.453h24.46v-3.453h1.205v3.453h6.319v-29.5h-1.058v-1.53l1.3-1.528-3.405-3.993-3.406,3.993,1.3,1.528v1.53h-1.058v2.74h-1.205V89.445l-.213-.172a19.1,19.1,0,0,0-24.034,0Zm-4.365.788,1.9,2.226-.633.741h-2.533l-.633-.741Zm.958,4.117v1.168h-1.915V94.349Zm1.058,29.521h-4.03v-27.2h4.03Zm2.349-3.453h-1.205V99.4H140.3Zm28.824-30.185,1.9,2.226-.633.742h-2.533l-.633-.742Zm.957,4.117v1.168h-1.915V94.349Zm-2.973,2.316h4.03v27.2h-4.03Zm-2.349,2.74h1.205v21.012h-1.205Zm-1.144,21.486H153.1V108.3h1.822v-6.5H153.1V89.635a17.742,17.742,0,0,1,10.513,3.819ZM153.1,107.153v-4.2h.677v4.2ZM141.444,90a17.955,17.955,0,0,1,22.171,0v2.019a19.07,19.07,0,0,0-22.171,0Zm0,3.457a17.741,17.741,0,0,1,10.513-3.819v12.17h-1.822v6.5h1.822v12.589H141.444Zm10.513,9.5v4.2h-.678v-4.2Zm-10.513,19.086h22.171v1.83H141.444Z" transform="translate(-132.529 -85.018)" fill="#1d72db"/>
</svg>
