<svg xmlns="http://www.w3.org/2000/svg" width="40" height="40" viewBox="0 0 40 40">
  <path id="Path_15686" data-name="Path 15686" d="M99.326,45.855a.667.667,0,0,0-.669.665V66.557a.667.667,0,0,0,.669.665h3.033a.6.6,0,0,0,.386,0H108.8a.6.6,0,0,0,.387,0h6.058a.6.6,0,0,0,.387,0h6.058a.6.6,0,0,0,.386,0h6.057a.6.6,0,0,0,.387,0h6.058a.605.605,0,0,0,.387,0h3.023a.667.667,0,0,0,.668-.665V46.52a.667.667,0,0,0-.668-.665h-5.451l-3.955-5.8-.652-.981h0a5.52,5.52,0,0,0-2.483-2.088,5.806,5.806,0,0,0-5.289.485l-1.119-1.113.223-.222h0a.662.662,0,0,0,0-.94L117.6,33.539l-5.633-5.6a2.365,2.365,0,0,0-3.328,0l-.3.3a2.333,2.333,0,0,0,0,3.309l5.633,5.6,1.663,1.654a.671.671,0,0,0,.945,0l.039-.039,1.12,1.114a5.7,5.7,0,0,0-.488,5.256,4.89,4.89,0,0,0,.378.72Zm30.025,8.476a5.624,5.624,0,0,0,1.543.76,3.224,3.224,0,0,0,.947.149,2.993,2.993,0,0,0,2.148-.966l.114-.113v1.715H129V54.093Zm7.97-2.14v3.682H135.44V52.408c.026-.072.056-.143.076-.216Zm-31.572,0h2.579v3.682h-5.107V52.192Zm6.444,0h2.579v3.682h-5.107V52.192Zm6.444,0h2.58v3.682H116.11V52.192ZM130.879,57.2v3.678h-5.107V57.2Zm-6.444,3.678h-5.107V57.2h5.108Zm-11.551,0V57.2h5.107v3.678Zm-6.444,0V57.2h5.108v3.678Zm-4.555-5.007H99.995V52.192h1.889ZM99.995,57.2H105.1v3.678H99.995Zm5.582,5.007a.6.6,0,0,0,.388,0h2.362v3.678h-5.105V62.21Zm4.089,0h2.354a.6.6,0,0,0,.388,0h2.362v3.678h-5.1Zm6.444,0h2.356a.6.6,0,0,0,.388,0h2.364v3.678h-5.108Zm6.444,0h2.356a.6.6,0,0,0,.388,0h2.362v3.678h-5.105Zm6.444,0h2.356a.6.6,0,0,0,.388,0H134.1v3.678H129Zm3.218-1.329V57.2h5.105v3.678Zm-4.555-5.007h-5.107V52.192h3.615l1.492,1Zm-8.333-5.012V47.589l.023.016,4.842,3.257Zm-1.337,0h-5.107V47.184h5.107Zm-6.444,0h-5.107V47.184h5.108ZM105.1,47.184v3.678H99.995V47.184ZM99.995,62.212h1.889V65.89H99.995Zm35.447,3.678V62.212h1.879V65.89Zm1.879-18.708V50.86h-1.786c-.022-.1-.044-.206-.075-.31a5.653,5.653,0,0,0-.765-1.533l-1.251-1.835Zm-28.038-18,.3-.3h0a1.021,1.021,0,0,1,1.437,0l5.16,5.131-1.742,1.732-5.16-5.131a1.007,1.007,0,0,1,0-1.429Zm6.105,7.5,1.742-1.732.718.714-.223.222-1.478,1.47-.039.039Zm2.708.615,2.754,2.739-.535.532-2.753-2.741Zm1.43,4.362h0a1.124,1.124,0,0,0,1.583,0l.84-.835h0a1.108,1.108,0,0,0,0-1.574l-.811-.806h0a4.457,4.457,0,0,1,3.806-.226,4.194,4.194,0,0,1,1.872,1.592l4.811,7.07.019.027,1.942,2.861a4.363,4.363,0,0,1,.592,1.175,1.526,1.526,0,0,1-.025,1.1l0,.008a2.107,2.107,0,0,1-.463.644l-.645.644a1.6,1.6,0,0,1-1.759.485,4.32,4.32,0,0,1-1.181-.587l-1.4-.942-.006,0-7.627-5.14-.983-.644a4.562,4.562,0,0,1-.6-.47,3.871,3.871,0,0,1-1-1.394,4.378,4.378,0,0,1,.228-3.782Z" transform="translate(-98.657 -27.254)" fill="#1d72db"/>
</svg>
