<svg xmlns="http://www.w3.org/2000/svg" width="40" height="40" viewBox="0 0 40 40">
  <g id="Group_20478" data-name="Group 20478" transform="translate(-616 -2046.999)">
    <path id="Subtraction_3" data-name="Subtraction 3" d="M19869,5A16.014,16.014,0,0,1,19853-11a15.926,15.926,0,0,1,4.258-10.851,15.933,15.933,0,0,1,10.4-5.085v-.313A4,4,0,0,1,19865-31a4,4,0,0,1,3.992-4,3.974,3.974,0,0,1,2.828,1.181A3.967,3.967,0,0,1,19873-31a4.023,4.023,0,0,1-2.668,3.751v.313a15.971,15.971,0,0,1,10.4,5.087A15.921,15.921,0,0,1,19885-11,16.018,16.018,0,0,1,19869,5Zm-.006-29.332A13.344,13.344,0,0,0,19855.668-11,13.344,13.344,0,0,0,19868.99,2.34,13.35,13.35,0,0,0,19882.326-11,13.35,13.35,0,0,0,19868.99-24.331Zm0-8a1.319,1.319,0,0,0-1.33,1.337,1.3,1.3,0,0,0,1.33,1.33,1.3,1.3,0,0,0,1.336-1.33A1.322,1.322,0,0,0,19868.99-32.332ZM19869,.332a.651.651,0,0,1-.643-.5l-2.67-10.668a.615.615,0,0,1,0-.326l2.67-10.662a.673.673,0,0,1,.643-.512h.014a.676.676,0,0,1,.633.512l2.666,10.662a.615.615,0,0,1,0,.326l-2.666,10.668A.655.655,0,0,1,19869,.332Zm0-12.664a1.331,1.331,0,0,0-1.33,1.33,1.334,1.334,0,0,0,1.33,1.337,1.337,1.337,0,0,0,1.338-1.337A1.334,1.334,0,0,0,19869-12.332Z" transform="translate(-19233.002 2081.998)" fill="#1d72db"/>
    <rect id="Rectangle_2101" data-name="Rectangle 2101" width="40" height="40" transform="translate(616 2047)" fill="none"/>
  </g>
</svg>
