<svg xmlns="http://www.w3.org/2000/svg" width="40" height="40" viewBox="0 0 40 40">
  <g id="Group_20544" data-name="Group 20544" transform="translate(5534 9018)">
    <g id="Group_20543" data-name="Group 20543" transform="translate(93.771 16.59)">
      <path id="Path_15666" data-name="Path 15666" d="M102.466,135.42a1.081,1.081,0,0,1-1.108-1.106V96.862a1.108,1.108,0,0,1,2.216,0v37.451A1.052,1.052,0,0,1,102.466,135.42Z" transform="translate(-5729.128 -9130.239)" fill="#1d72db"/>
      <path id="Path_15667" data-name="Path 15667" d="M313.586,135.42a1.081,1.081,0,0,1-1.108-1.106V96.862a1.108,1.108,0,0,1,2.216,0v37.451A1.052,1.052,0,0,1,313.586,135.42Z" transform="translate(-5922.478 -9130.214)" fill="#1d72db"/>
      <path id="Path_15668" data-name="Path 15668" d="M120.459,496.132H102.366a1.113,1.113,0,0,1,0-2.216h18.093a1.037,1.037,0,0,1,1.008,1.108,1.009,1.009,0,0,1-1.008,1.108Z" transform="translate(-5729.128 -9490.952)" fill="#1d72db"/>
      <path id="Path_15669" data-name="Path 15669" d="M120.458,96.852H102.366a1.113,1.113,0,0,1,0-2.216h18.092a1.113,1.113,0,0,1,0,2.216Z" transform="translate(-5729.128 -9129.226)" fill="#1d72db"/>
      <path id="Path_15673" data-name="Path 15673" d="M171.285,433.412h-8.336a1.108,1.108,0,1,1,0-2.216h8.337a1.108,1.108,0,1,1,0,2.216Z" transform="translate(-5784.913 -9434.132)" fill="#1d72db"/>
      <path id="Path_15674" data-name="Path 15674" d="M171.285,377.972h-8.336a1.108,1.108,0,1,1,0-2.216h8.337a1.108,1.108,0,1,1,0,2.216Z" transform="translate(-5784.913 -9383.906)" fill="#1d72db"/>
      <path id="Path_15675" data-name="Path 15675" d="M171.285,321.972h-8.336a1.108,1.108,0,0,1,0-2.216h8.337a1.108,1.108,0,1,1,0,2.216Z" transform="translate(-5784.913 -9333.174)" fill="#1d72db"/>
      <path id="Path_15676" data-name="Path 15676" d="M171.285,265.972h-8.336a1.108,1.108,0,1,1,0-2.216h8.337a1.108,1.108,0,1,1,0,2.216Z" transform="translate(-5784.913 -9282.438)" fill="#1d72db"/>
      <path id="Path_15677" data-name="Path 15677" d="M171.285,211.652h-8.336a1.108,1.108,0,1,1,0-2.216h8.337a1.108,1.108,0,1,1,0,2.216Z" transform="translate(-5784.913 -9233.229)" fill="#1d72db"/>
      <path id="Path_15678" data-name="Path 15678" d="M171.285,157.332h-8.336a1.108,1.108,0,1,1,0-2.216h8.337a1.108,1.108,0,1,1,0,2.216Z" transform="translate(-5784.913 -9184.007)" fill="#1d72db"/>
      <path id="Union_4" data-name="Union 4" d="M7.04,14.827V3.8L1.69,9.814a.941.941,0,0,1-1.408,0,1.252,1.252,0,0,1,0-1.582L7.3.337A.931.931,0,0,1,8.025,0h.029a.939.939,0,0,1,.722.316l7.04,7.915a1.252,1.252,0,0,1,0,1.582.941.941,0,0,1-1.408,0l-5.4-6.066V14.827a1.151,1.151,0,0,1-.282.791.9.9,0,0,1-.7.317A1.028,1.028,0,0,1,7.04,14.827Z" transform="translate(-5603.868 -9034.457)" fill="#1d72db"/>
      <path id="Union_5" data-name="Union 5" d="M7.04,1.108V12.135L1.69,6.121a.941.941,0,0,0-1.408,0,1.252,1.252,0,0,0,0,1.582L7.3,15.6a.931.931,0,0,0,.721.337h.029a.939.939,0,0,0,.722-.316L15.816,7.7a1.252,1.252,0,0,0,0-1.582.941.941,0,0,0-1.408,0l-5.4,6.066V1.108A1.151,1.151,0,0,0,8.73.317.9.9,0,0,0,8.025,0,1.028,1.028,0,0,0,7.04,1.108Z" transform="translate(-5603.868 -9010.524)" fill="#1d72db"/>
    </g>
    <rect id="Rectangle_2115" data-name="Rectangle 2115" width="40" height="40" transform="translate(-5534 -9018)" fill="none"/>
  </g>
</svg>
