<svg xmlns="http://www.w3.org/2000/svg" width="30" height="30" viewBox="0 0 30 30">
  <g id="Group_20549" data-name="Group 20549" transform="translate(5541 7343)">
    <path id="noun-border-top-205111" d="M170,95.1H155.88v1.765h-1.765V95.1H140V93.334h30V95.1m-30,3.529h1.765v3.529H140V98.628m28.235,7.059H170v5.294h-1.765v-1.765h-1.765v-1.765h1.765v-1.765m0-7.059H170v3.529h-1.765V98.628m-14.117,8.824h1.765v1.765h-1.765v-1.765M170,121.569v1.765h-1.765v-1.765H170m0-3.529h-1.765V114.51H170v3.529m-21.176,3.529v1.765h-3.529v-1.765h3.529m15.882,0v1.765h-3.529v-1.765H164.7m-7.059,0v1.765h-5.294v-1.765h1.765V119.8h1.765v1.765h1.765m-15.882-15.882v1.765h1.765v1.765h-1.765v1.765H140v-5.294h1.765M140,114.51h1.765v3.529H140V114.51m1.765,7.059v1.765H140v-1.765h1.765m8.824-14.118v1.765h-3.529v-1.765h3.529m3.529-7.059h1.765v3.529h-1.765v-3.529m0,12.353h1.765v3.529h-1.765v-3.529m8.823-5.294v1.765H159.41v-1.765Z" transform="translate(-5680.998 -7436.334)" fill="#1d72db"/>
    <rect id="Rectangle_2118" data-name="Rectangle 2118" width="30" height="30" transform="translate(-5541 -7343)" fill="none"/>
  </g>
</svg>
