<svg xmlns="http://www.w3.org/2000/svg" width="18" height="16" viewBox="0 0 18 16">
  <path id="Path_1471" data-name="Path 1471" d="M1061.23,281.282l6.542,11.213a2.576,2.576,0,0,1,.225.89,2.433,2.433,0,0,1-.657,1.8,2.568,2.568,0,0,1-1.755.819h-13.174a2.868,2.868,0,0,1-.819-.176,2.479,2.479,0,0,1-1.4-3.25l6.587-11.3a2.443,2.443,0,0,1,.99-.96A2.582,2.582,0,0,1,1061.23,281.282Zm-1.449,7.39a.787.787,0,0,1-1.575,0v-2.492a.783.783,0,0,1,.792-.766.775.775,0,0,1,.783.766ZM1059,292.46a.776.776,0,1,1,0-1.551.776.776,0,0,1,.783.766A.786.786,0,0,1,1059,292.46Z" transform="translate(-1050.001 -280)" fill="#d91c30" fill-rule="evenodd"/>
</svg>
