<svg xmlns="http://www.w3.org/2000/svg" width="40" height="40" viewBox="0 0 40 40">
  <g id="Group_20478" data-name="Group 20478" transform="translate(-616 -2046.999)">
    <rect id="Rectangle_2101" data-name="Rectangle 2101" width="40" height="40" transform="translate(616 2046.999)" fill="none"/>
    <path id="noun-highway-4459934" d="M150.53,59.634a1.065,1.065,0,0,0,.03-.251,1.056,1.056,0,0,0-2.091-.208l-8.435,37.852a1.056,1.056,0,1,0,2.061.459Zm5.1.8-7.975,35.789h22.7l-7.975-35.789Zm-1.914-1.116a1.266,1.266,0,0,1,1.236-.989h8.106a1.266,1.266,0,0,1,1.236.989l8.351,37.473a1.264,1.264,0,0,1-1.237,1.537H146.6a1.264,1.264,0,0,1-1.237-1.537ZM159,68.857a1.054,1.054,0,0,1-1.056-1.053v-4.21a1.056,1.056,0,0,1,2.111,0V67.8A1.054,1.054,0,0,1,159,68.857Zm-1.056,7.368a1.056,1.056,0,0,0,2.111,0V72.015a1.056,1.056,0,0,0-2.111,0ZM159,85.7a1.055,1.055,0,0,1-1.056-1.053V80.436a1.056,1.056,0,0,1,2.111,0v4.211A1.055,1.055,0,0,1,159,85.7Zm-1.056,7.368a1.056,1.056,0,0,0,2.111,0v-4.21a1.056,1.056,0,0,0-2.111,0Zm9.5-33.684a1.064,1.064,0,0,0,.03.251l8.435,37.852a1.056,1.056,0,1,0,2.06-.459l-8.435-37.852a1.056,1.056,0,0,0-2.091.208Z" transform="translate(476.996 1988.668)" fill="#1d72db" fill-rule="evenodd"/>
  </g>
</svg>
