<svg xmlns="http://www.w3.org/2000/svg" width="35.75" height="39" viewBox="0 0 35.75 39">
  <g id="noun-under-construction-83528_1_" data-name="noun-under-construction-83528 (1)" transform="translate(-140 -28)">
    <path id="Path_15127" data-name="Path 15127" d="M168.167,28h-4.333v4.333H140V34.5h23.833V54H159.5V41H140V67h32.5V54h-4.333V34.5h7.583V32.333h-7.583Zm2.167,28.167v8.667H142.167V43.167h15.167v13Z" transform="translate(0 0)" fill="#1d72db"/>
    <path id="Path_15128" data-name="Path 15128" d="M196,420h4.333v4.333H196Z" transform="translate(-51.667 -361.667)" fill="#1d72db"/>
    <path id="Path_15129" data-name="Path 15129" d="M280,420h4.333v4.333H280Z" transform="translate(-129.167 -361.667)" fill="#1d72db"/>
    <path id="Path_15130" data-name="Path 15130" d="M364,420h4.333v4.333H364Z" transform="translate(-206.667 -361.667)" fill="#1d72db"/>
    <path id="Path_15131" data-name="Path 15131" d="M448,420h4.333v4.333H448Z" transform="translate(-284.167 -361.667)" fill="#1d72db"/>
    <path id="Path_15132" data-name="Path 15132" d="M280,336h4.333v4.333H280Z" transform="translate(-129.167 -284.167)" fill="#1d72db"/>
    <path id="Path_15133" data-name="Path 15133" d="M196,336h4.333v4.333H196Z" transform="translate(-51.667 -284.167)" fill="#1d72db"/>
    <path id="Path_15134" data-name="Path 15134" d="M280,252h4.333v4.333H280Z" transform="translate(-129.167 -206.667)" fill="#1d72db"/>
    <path id="Path_15135" data-name="Path 15135" d="M196,252h4.333v4.333H196Z" transform="translate(-51.667 -206.667)" fill="#1d72db"/>
    <path id="Path_15136" data-name="Path 15136" d="M518,126h4.333v5.417H518Z" transform="translate(-348.75 -90.417)" fill="#1d72db"/>
  </g>
</svg>
