<svg xmlns="http://www.w3.org/2000/svg" width="30" height="30" viewBox="0 0 30 30">
  <g id="Group_20470" data-name="Group 20470" transform="translate(-278 -1843)">
    <rect id="Rectangle_2098" data-name="Rectangle 2098" width="30" height="30" transform="translate(278 1843)" fill="none"/>
    <path id="Path_15740" data-name="Path 15740" d="M108.116,61.1a.613.613,0,0,1-.487-.236.62.62,0,0,1-.122-.532c.157-.663.313-1.292.461-1.885.7-2.776,1.2-4.783.331-6.119-.731-1.126-2.506-1.912-5.586-2.461a1.937,1.937,0,0,1-1.6-1.912c0-2.13.009-4.067.017-6.005s.017-3.867.017-5.988a.615.615,0,0,1,.1-.332.616.616,0,0,1-.1-.332v-1.17a1.458,1.458,0,0,1,1.453-1.457h1.784v-.131a1.439,1.439,0,0,1,1.436-1.44h.47a1.439,1.439,0,0,1,1.436,1.44v.131h1.784a1.458,1.458,0,0,1,1.453,1.457V35.3a.616.616,0,0,1-.1.332.615.615,0,0,1,.1.332v8.729a.867.867,0,0,0,.983.864H130.45a.632.632,0,0,1,.626.559,4.8,4.8,0,0,1,.035.611c0,3.6-3.332,6.625-7.8,7.454a.513.513,0,0,1,.035.2v6.093a.644.644,0,0,1-.635.628Zm.8-1.257h13.155V54.382a.2.2,0,0,0,.009-.035c-.409.035-.835.061-1.253.061a11.3,11.3,0,0,1-8.788-3.683.625.625,0,1,1,.966-.795,10.173,10.173,0,0,0,7.822,3.221c4.942,0,8.962-2.837,9.032-6.337H111.953a2.106,2.106,0,0,1-2.236-2.121v-8.1h-7.3c0,1.885-.009,3.622-.017,5.368-.009,1.938-.017,3.867-.017,6a.7.7,0,0,0,.566.681c3.489.628,5.473,1.554,6.412,3.02,1.166,1.807.574,4.146-.165,7.114-.087.349-.183.716-.27,1.091Zm.792-24.518v-1.2a.2.2,0,0,0-.2-.2H107.1a.625.625,0,0,1-.626-.628v-.76a.184.184,0,0,0-.183-.183h-.47a.184.184,0,0,0-.183.183v.76a.625.625,0,0,1-.626.628H102.6a.2.2,0,0,0-.2.2v1.2ZM130.146,44.5H112.831a.628.628,0,0,1,0-1.257h17.314a.628.628,0,0,1,0,1.257Z" transform="translate(176.889 1811.897)" fill="#1d72db"/>
  </g>
</svg>
