<svg xmlns="http://www.w3.org/2000/svg" width="11.38" height="14.405" viewBox="0 0 11.38 14.405">
  <g id="Group_20401" data-name="Group 20401" transform="translate(0.621 0.6)">
    <path id="Path_15612" data-name="Path 15612" d="M552.946,526.9a1.188,1.188,0,0,1,.95-1.9h7.76a1.188,1.188,0,0,1,.95,1.9h0a3.3,3.3,0,0,0-.66,1.98v4.461a2.78,2.78,0,0,1-2.78,2.78h-2.78a2.78,2.78,0,0,1-2.78-2.78V528.88a3.3,3.3,0,0,0-.66-1.98Z" transform="translate(-552.707 -522.916)" fill="none" stroke="#1d72db" stroke-width="1.2"/>
    <path id="Path_15613" data-name="Path 15613" d="M562,534.17V530" transform="translate(-555.541 -524.439)" fill="none" stroke="#1d72db" stroke-linecap="round" stroke-linejoin="round" stroke-width="1.2"/>
    <path id="Path_15614" data-name="Path 15614" d="M558,534.17V530" transform="translate(-554.32 -524.439)" fill="none" stroke="#1d72db" stroke-linecap="round" stroke-linejoin="round" stroke-width="1.2"/>
    <path id="Path_15615" data-name="Path 15615" d="M561.56,524.085l-.378-1.134a1.391,1.391,0,0,0-1.319-.951H557.7a1.391,1.391,0,0,0-1.319.951L556,524.085" transform="translate(-553.711 -522)" fill="none" stroke="#1d72db" stroke-linecap="round" stroke-width="1.2"/>
  </g>
</svg>
