<svg xmlns="http://www.w3.org/2000/svg" width="13.2" height="13.327" viewBox="0 0 13.2 13.327">
  <g id="Group_20398" data-name="Group 20398" transform="translate(-322.15 -391.024)">
    <path id="Path_15609" data-name="Path 15609" d="M328.319,391.789h-2.382a3.087,3.087,0,0,0-3.187,3.344v5.287a3.084,3.084,0,0,0,3.187,3.344h5.621a3.084,3.084,0,0,0,3.188-3.344v-2.562" transform="translate(0 -0.014)" fill="none" stroke="#fff" stroke-linecap="round" stroke-linejoin="round" stroke-width="1.2"/>
    <path id="Path_15610" data-name="Path 15610" d="M328.555,396.866l4.679-4.679a1.494,1.494,0,0,1,2.111,0l.762.762a1.492,1.492,0,0,1,0,2.111l-4.7,4.7a1.359,1.359,0,0,1-.961.4H328.1l.059-2.367A1.359,1.359,0,0,1,328.555,396.866Z" transform="translate(-1.795)" fill="none" stroke="#fff" stroke-linecap="round" stroke-linejoin="round" stroke-width="1.2" fill-rule="evenodd"/>
    <path id="Path_15611" data-name="Path 15611" d="M335.165,393.6l2.859,2.859" transform="translate(-4.436 -0.693)" fill="none" stroke="#fff" stroke-linecap="round" stroke-linejoin="round" stroke-width="1.2"/>
  </g>
</svg>
