<svg xmlns="http://www.w3.org/2000/svg" width="60" height="60" viewBox="0 0 60 60">
  <g id="Group_20910" data-name="Group 20910" transform="translate(-1120 -335)">
    <rect id="Rectangle_2125" data-name="Rectangle 2125" width="60" height="60" rx="10" transform="translate(1120 335)" fill="#1d72db"/>
    <path id="Path_1517" data-name="Path 1517" d="M546,238.022a15.029,15.029,0,1,1,7.62,13.025,2.548,2.548,0,0,0-2.235-.54l-3.03.9a.936.936,0,0,1-1.23-1.172l1.005-3.365a1.571,1.571,0,0,0-.105-1.352A15.886,15.886,0,0,1,546,238.022Zm13.05,0a1.92,1.92,0,1,0,3.84.015,1.92,1.92,0,0,0-3.84-.015Zm6.915.015a1.92,1.92,0,1,0,1.92-1.923A1.925,1.925,0,0,0,565.965,238.037Zm-11.91,1.923a1.935,1.935,0,0,1-1.92-1.923,1.92,1.92,0,1,1,3.84,0A1.935,1.935,0,0,1,554.055,239.961Z" transform="translate(589 127)" fill="#fff" fill-rule="evenodd"/>
  </g>
</svg>
