<svg xmlns="http://www.w3.org/2000/svg" width="50" height="50" viewBox="0 0 50 50">
  <g id="Group_17598" data-name="Group 17598" transform="translate(-54 -35)">
    <g id="Group_17597" data-name="Group 17597" transform="translate(54 35)">
      <path id="Path_12984" data-name="Path 12984" d="M34.815,41.875A14.656,14.656,0,0,1,46.389,47.52a1.875,1.875,0,1,0,2.953-2.311,18.439,18.439,0,0,0-28.236-.977,1.875,1.875,0,0,0,2.787,2.509A14.643,14.643,0,0,1,34.815,41.875ZM35,60A25,25,0,1,0,10,35,25,25,0,0,0,35,60Zm8.75-27.5a3.125,3.125,0,1,0-3.125-3.125A3.125,3.125,0,0,0,43.75,32.5Zm-17.5,0a3.125,3.125,0,1,0-3.125-3.125A3.125,3.125,0,0,0,26.25,32.5Z" transform="translate(-10 -10)" fill="rgba(29,114,219,0.3)" fill-rule="evenodd"/>
    </g>
  </g>
</svg>
