<svg xmlns="http://www.w3.org/2000/svg" width="60" height="60" viewBox="0 0 60 60">
  <g id="Group_20909" data-name="Group 20909" transform="translate(-420 -335)">
    <rect id="Rectangle_2125" data-name="Rectangle 2125" width="60" height="60" rx="10" transform="translate(420 335)" fill="#f77223"/>
    <path id="Path_1490" data-name="Path 1490" d="M555.147,405A5.846,5.846,0,1,0,561,399.181,5.831,5.831,0,0,0,555.147,405Zm14.458-8.931a21.254,21.254,0,0,1,6.306,8.494,1.079,1.079,0,0,1,0,.858C572.781,412.664,567.205,417,561,417h-.015c-6.19,0-11.766-4.335-14.9-11.578a1.079,1.079,0,0,1,0-.858c3.13-7.243,8.706-11.563,14.9-11.563H561A13.906,13.906,0,0,1,569.605,396.069ZM561,408.618a3.628,3.628,0,1,0,0-7.257,2.826,2.826,0,0,0-.511.043,3,3,0,0,1-3,2.88h-.073a3.818,3.818,0,0,0-.073.712A3.646,3.646,0,0,0,561,408.618Z" transform="translate(-111 -40)" fill="#fff" fill-rule="evenodd"/>
  </g>
</svg>
