<svg xmlns="http://www.w3.org/2000/svg" width="60" height="60" viewBox="0 0 60 60">
  <g id="Group_20589" data-name="Group 20589" transform="translate(-420 -335)">
    <rect id="Rectangle_2125" data-name="Rectangle 2125" width="60" height="60" rx="10" transform="translate(420 335)" fill="#50bf97"/>
    <path id="Path_1523" data-name="Path 1523" d="M441.995,279H456c5.1,0,7.981,2.893,8,7.995v14.01c0,5.1-2.895,7.995-8,7.995H441.995c-5.1,0-7.995-2.895-7.995-7.995v-14.01C434,281.893,436.893,279,441.995,279Zm7.079,23.79a1.24,1.24,0,0,0,1.245-1.125V286.38a1.223,1.223,0,0,0-.568-1.185,1.259,1.259,0,0,0-1.922,1.185v15.285A1.264,1.264,0,0,0,449.074,302.79Zm6.9,0a1.264,1.264,0,0,0,1.245-1.125v-4.92a1.259,1.259,0,0,0-1.92-1.185,1.209,1.209,0,0,0-.57,1.185v4.92A1.24,1.24,0,0,0,455.975,302.79Zm-12.646-1.125a1.251,1.251,0,0,1-2.488,0V291.3a1.261,1.261,0,0,1,.585-1.185,1.234,1.234,0,0,1,1.32,0,1.263,1.263,0,0,1,.583,1.185Z" transform="translate(1 71)" fill="#fff" fill-rule="evenodd"/>
  </g>
</svg>
