<svg xmlns="http://www.w3.org/2000/svg" width="15" height="18" viewBox="0 0 15 18">
  <path id="Path_1487" data-name="Path 1487" d="M442.76,408.922a.662.662,0,0,0,.316.077.681.681,0,0,0,.317-.081l3.148-1.717A7.278,7.278,0,0,0,450.5,400.6l-.037-5.977a1.626,1.626,0,0,0-1.1-1.526l-5.856-2a1.633,1.633,0,0,0-1.085.005l-5.835,2.076a1.628,1.628,0,0,0-1.083,1.54l.037,5.972a7.3,7.3,0,0,0,4.046,6.562Zm-.833-7.024a.669.669,0,0,0,.942-.006l3.44-3.46a.658.658,0,0,0-.005-.935.668.668,0,0,0-.942.005l-2.973,2.988-1.217-1.193a.67.67,0,0,0-.942.006.658.658,0,0,0,.006.935Z" transform="translate(-435.5 -391)" fill="#50bf97" fill-rule="evenodd"/>
</svg>
