<svg xmlns="http://www.w3.org/2000/svg" width="18" height="14" viewBox="0 0 18 14">
  <path id="Path_1490" data-name="Path 1490" d="M551.488,400A3.51,3.51,0,1,0,555,396.606,3.452,3.452,0,0,0,551.488,400Zm8.675-5.21a12.435,12.435,0,0,1,3.783,4.955.613.613,0,0,1,0,.5C562.068,404.471,558.723,407,555,407h-.009c-3.714,0-7.059-2.529-8.938-6.754a.614.614,0,0,1,0-.5c1.878-4.225,5.223-6.745,8.938-6.745H555A8.493,8.493,0,0,1,560.163,394.79ZM555,402.11a2.118,2.118,0,1,0,0-4.233,1.742,1.742,0,0,0-.307.025,1.775,1.775,0,0,1-1.8,1.68h-.044A2.1,2.1,0,0,0,555,402.11Z" transform="translate(-546 -393)" fill="#323d5a" fill-rule="evenodd"/>
</svg>
