<svg xmlns="http://www.w3.org/2000/svg" width="16" height="16" viewBox="0 0 16 16">
  <path id="Path_15728" data-name="Path 15728" d="M2,18l1.082-3.974a8,8,0,1,1,2.891,2.89ZM7.113,6.246a.769.769,0,0,0-.3.08,1.034,1.034,0,0,0-.235.182,1.783,1.783,0,0,0-.209.245A2.183,2.183,0,0,0,5.92,8.1a2.8,2.8,0,0,0,.264,1.13A7.642,7.642,0,0,0,7.761,11.42c.171.17.338.342.518.5a7.558,7.558,0,0,0,3.072,1.637l.455.07a4.35,4.35,0,0,0,.445-.01,1.592,1.592,0,0,0,.666-.185c.133-.07.2-.106.306-.176,0,0,.034-.022.1-.072a1.836,1.836,0,0,0,.264-.23.918.918,0,0,0,.168-.242,2.228,2.228,0,0,0,.15-.586,1.569,1.569,0,0,0,.011-.3.273.273,0,0,0-.152-.212l-.466-.209s-.7-.3-1.121-.5a.4.4,0,0,0-.142-.033.386.386,0,0,0-.3.1v0a9.636,9.636,0,0,0-.636.746.28.28,0,0,1-.294.1,1.133,1.133,0,0,1-.153-.053c-.1-.042-.134-.058-.2-.087l0,0a4.808,4.808,0,0,1-1.256-.8C9.09,10.8,9,10.7,8.9,10.609a5.037,5.037,0,0,1-.816-1.014l-.047-.076a.738.738,0,0,1-.082-.164A.256.256,0,0,1,8,9.142s.194-.213.285-.328a3.5,3.5,0,0,0,.21-.3.484.484,0,0,0,.074-.429q-.336-.821-.694-1.633a.405.405,0,0,0-.314-.2c-.043,0-.086-.01-.13-.013a2.708,2.708,0,0,0-.322,0Z" transform="translate(-2 -2)" fill="#50bf97"/>
</svg>
