<svg xmlns="http://www.w3.org/2000/svg" width="39.801" height="41.801" viewBox="0 0 39.801 41.801">
  <g id="bathroom_Icon" data-name="bathroom Icon" transform="translate(0.9 0.9)">
    <path id="Path_15013" data-name="Path 15013" d="M538.464,489.285v-2.714a3.746,3.746,0,1,0-7.464,0V501.5" transform="translate(-523.366 -482.5)" fill="rgba(29,114,219,0)" stroke="#1d72db" stroke-linecap="round" stroke-miterlimit="10" stroke-width="1.8"/>
    <path id="Path_15014" data-name="Path 15014" d="M548.9,508v.814a2.474,2.474,0,0,1-2.364,2.578H536.464a2.479,2.479,0,0,1-2.364-2.578V508" transform="translate(-522.438 -471.393)" fill="none" stroke="#1d72db" stroke-miterlimit="10" stroke-width="1.8"/>
    <path id="Path_15015" data-name="Path 15015" d="M555.4,512.285H532.6a7.909,7.909,0,0,1-7.6-8.142V496h38v8.142A7.909,7.909,0,0,1,555.4,512.285Z" transform="translate(-525 -476.035)" fill="none" stroke="#1d72db" stroke-linejoin="round" stroke-miterlimit="10" stroke-width="1.8"/>
  </g>
</svg>
