<svg xmlns="http://www.w3.org/2000/svg" width="20" height="14" viewBox="0 0 20 14">
  <path id="noun_bedroom_3937590" d="M33.375,50.569H31.237l.338,1.221a.964.964,0,0,0,.928.71h.028a.978.978,0,0,0,.675-.284,1,1,0,0,0,.281-.682v-.966Zm-17.778,0h-.113v.966a1,1,0,0,0,.281.682.978.978,0,0,0,.675.284h.028a.964.964,0,0,0,.928-.71l.338-1.221ZM33.375,45.4H31.209v-.6a.82.82,0,0,0-.816-.824H26.821A.82.82,0,0,0,26,44.8v.6H23v-.6a.82.82,0,0,0-.816-.824h-3.6a.82.82,0,0,0-.816.824v.6H15.6a1.122,1.122,0,0,0-1.1,1.108v1.959a1.1,1.1,0,0,0,1.1,1.107H33.4a1.122,1.122,0,0,0,1.1-1.107V46.508A1.128,1.128,0,0,0,33.375,45.4Zm-.591-5.793A3.747,3.747,0,0,0,30.112,38.5H18.86a3.747,3.747,0,0,0-2.672,1.108,3.82,3.82,0,0,0-1.1,2.7v2.187a3.071,3.071,0,0,1,.506-.057h1.238a1.816,1.816,0,0,1,1.772-1.448h3.6a1.839,1.839,0,0,1,1.772,1.448H25.1a1.816,1.816,0,0,1,1.772-1.448h3.516a1.816,1.816,0,0,1,1.772,1.448H33.4a3.071,3.071,0,0,1,.506.057V42.305A3.846,3.846,0,0,0,32.784,39.608Z" transform="translate(-14.5 -38.5)" fill="#50bf97"/>
</svg>
