<svg xmlns="http://www.w3.org/2000/svg" width="56" height="56" viewBox="0 0 56 56">
  <g id="Group_17592" data-name="Group 17592" transform="translate(-598 -755)">
    <g id="Group_17591" data-name="Group 17591" transform="translate(6 -55)">
      <rect id="Rectangle_1414" data-name="Rectangle 1414" width="56" height="56" rx="28" transform="translate(592 810)" fill="rgba(80,191,151,0.3)"/>
      <g id="noun_Eye_4303909" transform="translate(591.352 803.629)">
        <path id="Path_12779" data-name="Path 12779" d="M28.663,27.639a12.779,12.779,0,0,1,5.314,1.1,6.734,6.734,0,0,1-.321,9.639,7.407,7.407,0,0,1-10.028-.012,6.732,6.732,0,0,1-.294-9.638A12.261,12.261,0,0,1,28.663,27.639Zm-.012-2.268c-5.18,0-9.964,2.5-14.526,7.717a1.964,1.964,0,0,0,0,2.561c4.513,5.262,9.351,7.722,14.529,7.722s10.014-2.46,14.524-7.722a1.962,1.962,0,0,0,0-2.561C38.609,27.874,33.833,25.371,28.651,25.371Z" transform="translate(0 0)" fill="#50bf97"/>
        <path id="Path_12780" data-name="Path 12780" d="M39.4,33.145a.385.385,0,0,0-.325.537,1.459,1.459,0,0,1-1.721,1.98,1.436,1.436,0,0,1-.75-.489.384.384,0,0,0-.624.04,4.418,4.418,0,1,0,4.891-1.932A5.031,5.031,0,0,0,39.4,33.145Z" transform="translate(-11.074 -4.165)" fill="#50bf97"/>
      </g>
    </g>
  </g>
</svg>
