<svg xmlns="http://www.w3.org/2000/svg" width="23.998" height="30" viewBox="0 0 23.998 30">
  <path id="Subtraction_6" data-name="Subtraction 6" d="M19865-5a12.011,12.011,0,0,1-12-12,11.95,11.95,0,0,1,3.193-8.139,11.95,11.95,0,0,1,7.8-3.814v-.234a3,3,0,0,1-2-2.813,3,3,0,0,1,2.994-3,2.981,2.981,0,0,1,2.121.886A2.977,2.977,0,0,1,19868-32a3.016,3.016,0,0,1-2,2.814v.234a11.977,11.977,0,0,1,7.8,3.816A11.937,11.937,0,0,1,19877-17,12.014,12.014,0,0,1,19865-5Zm0-22A10.008,10.008,0,0,0,19855-17a10.008,10.008,0,0,0,9.992,10,10.013,10.013,0,0,0,10-10A10.013,10.013,0,0,0,19864.994-27Zm0-6a.989.989,0,0,0-1,1,.975.975,0,0,0,1,1,.977.977,0,0,0,1-1A.991.991,0,0,0,19864.994-33Zm0,24.5a.489.489,0,0,1-.482-.374l-2-8a.472.472,0,0,1,0-.244l2-8a.505.505,0,0,1,.482-.384h.01a.505.505,0,0,1,.475.384l2,8a.472.472,0,0,1,0,.244l-2,8A.49.49,0,0,1,19865-8.5Zm0-9.5a1,1,0,0,0-1,1,1,1,0,0,0,1,1,1,1,0,0,0,1-1A1,1,0,0,0,19865-18Z" transform="translate(-19853.002 34.999)" fill="#1d72db"/>
</svg>
