<svg xmlns="http://www.w3.org/2000/svg" width="14" height="12.444" viewBox="0 0 14 12.444">
  <path id="Path_1492" data-name="Path 1492" d="M662.814,394.365A2.408,2.408,0,1,1,660.407,392,2.386,2.386,0,0,1,662.814,394.365Zm8.13-1.037a1.037,1.037,0,1,1,0,2.073h-4.6a1.037,1.037,0,1,1,0-2.073Zm-11.889,7.742h4.6a1.037,1.037,0,1,1,0,2.074h-4.6a1.037,1.037,0,1,1,0-2.074Zm10.537,3.374a2.366,2.366,0,1,0-2.407-2.365A2.386,2.386,0,0,0,669.592,404.444Z" transform="translate(-658 -392)" fill="#50bf97" fill-rule="evenodd"/>
</svg>
