<svg xmlns="http://www.w3.org/2000/svg" width="40" height="40" viewBox="0 0 40 40">
  <g id="Group_20476" data-name="Group 20476" transform="translate(-192 -1826)">
    <rect id="Rectangle_2100" data-name="Rectangle 2100" width="40" height="40" transform="translate(192 1826)" fill="none"/>
    <path id="Subtraction_37" data-name="Subtraction 37" d="M-17456-13958h-1.365v-3.954h-10.24v-1.379h2.6v-5.618h-11.039v-1.378h3.4v-5.619h-10.24v-1.378h2.6v-5.618H-17490v-1.379h2.885v-10.008h.008a1.886,1.886,0,0,1-1.2-1.769,1.9,1.9,0,0,1,1.883-1.9,1.9,1.9,0,0,1,1.889,1.9,1.913,1.913,0,0,1-1.2,1.769v1.286l25.973,19.581a1.878,1.878,0,0,1-.232-.9,1.9,1.9,0,0,1,1.887-1.9,1.9,1.9,0,0,1,1.883,1.9,1.892,1.892,0,0,1-1.2,1.773v9.253h1.436v5.332Zm-7.637-12.334v7h4.836v-7.677l-26.941-20.318h0v7h6.838v7h7.639v7Zm5.027-4.025a.5.5,0,0,0,.5.47.5.5,0,0,0,.5-.47h.023a.515.515,0,0,0-.176-.39.5.5,0,0,0-.348-.142.5.5,0,0,0-.395.193.523.523,0,0,0-.123.338Zm-27.818-22.263a.521.521,0,0,0-.518.522.521.521,0,0,0,.518.522.523.523,0,0,0,.523-.522A.523.523,0,0,0-17486.428-13996.621Z" transform="translate(17685 15824)" fill="#1d72db"/>
  </g>
</svg>
