<svg xmlns="http://www.w3.org/2000/svg" width="25.708" height="30" viewBox="0 0 25.708 30">
  <path id="Path_15114" data-name="Path 15114" d="M134.485,28.656a1.426,1.426,0,1,1,1.033,0v.966l19.638,14.685a1.422,1.422,0,1,1,1.766.656V51.9h1.085v4h-1.033V52.938h-7.743V51.9H151.2V47.69h-8.347V46.657h2.572V42.442h-7.743V41.409h1.968V37.195H132.3V36.161h2.18V28.656ZM156.8,43.635a.392.392,0,1,0-.785,0Zm-21.286-7.479h5.17V41.4h5.775v5.248h5.77v5.253h3.657V46.146L135.518,30.908ZM135,27.721a.392.392,0,1,0-.392-.392A.392.392,0,0,0,135,27.721Z" transform="translate(-132.3 -25.903)" fill="#1d72db"/>
</svg>
