<svg xmlns="http://www.w3.org/2000/svg" width="41.5" height="40" viewBox="0 0 41.5 40">
  <g id="Group_20473" data-name="Group 20473" transform="translate(-1019.25 -1966)">
    <rect id="Rectangle_2099" data-name="Rectangle 2099" width="40" height="40" transform="translate(1020 1966)" fill="none"/>
    <g id="Furnishing_Status" transform="translate(1020 1968)">
      <g id="Group_19049" data-name="Group 19049" transform="translate(0 0)">
        <path id="Path_15088" data-name="Path 15088" d="M578.306,529.795v-4.882a5.537,5.537,0,0,0-1.106-3.3v-6.712A3.753,3.753,0,0,1,580.628,511H597.55a3.674,3.674,0,0,1,3.428,3.905v6.712a5.537,5.537,0,0,0-1.106,3.3v4.882" transform="translate(-569.145 -511)" fill="rgba(255,255,255,0)" stroke="#1d72db" stroke-linejoin="round" stroke-miterlimit="10" stroke-width="1.5"/>
        <path id="Path_15089" data-name="Path 15089" d="M582.048,538.9v1.8c0,1.081-.559,1.982-1.231,1.982h-4.587c-.671,0-1.231-.9-1.231-1.982v-1.8Z" transform="translate(-569.406 -506.683)" fill="rgba(255,255,255,0)" stroke="#1d72db" stroke-linejoin="round" stroke-miterlimit="10" stroke-width="1.5"/>
        <path id="Path_15090" data-name="Path 15090" d="M601.648,538.9v1.8c0,1.081-.559,1.982-1.231,1.982h-4.587c-.671,0-1.231-.9-1.231-1.982v-1.8Z" transform="translate(-567.353 -506.683)" fill="rgba(255,255,255,0)" stroke="#1d72db" stroke-linejoin="round" stroke-miterlimit="10" stroke-width="1.5"/>
        <path id="Path_15092" data-name="Path 15092" d="M578.2,526.4v2.685a27.478,27.478,0,0,1,11.379-2.563,26.351,26.351,0,0,1,10.274,2.075v-2.2" transform="translate(-569.026 -509.143)" fill="rgba(255,255,255,0)" stroke="#1d72db" stroke-linejoin="round" stroke-miterlimit="10" stroke-width="1.5"/>
        <path id="Path_15093" data-name="Path 15093" d="M610,523.3a5.031,5.031,0,0,1-3.444,4.882v15.256H573.445V528.186A5.031,5.031,0,0,1,570,523.3a4.743,4.743,0,0,1,4.556-5A4.391,4.391,0,0,1,578,520.01a5.52,5.52,0,0,1,1.111,3.3v13.913h21.667V523.3a5.52,5.52,0,0,1,1.111-3.3,4.391,4.391,0,0,1,3.444-1.709C608,518.179,610,520.5,610,523.3Z" transform="translate(-570 -511.225)" fill="rgba(255,255,255,0)" stroke="#1d72db" stroke-linejoin="round" stroke-miterlimit="10" stroke-width="1.5"/>
      </g>
    </g>
  </g>
</svg>
