<svg xmlns="http://www.w3.org/2000/svg" width="37.5" height="31.5" viewBox="0 0 37.5 31.5">
  <g id="Furnishing_Status" transform="translate(-569.25 -510.25)">
    <g id="Group_19049" data-name="Group 19049">
      <path id="Path_15088" data-name="Path 15088" d="M578.2,526.4v-4a4.268,4.268,0,0,0-1-2.7v-5.5a3.2,3.2,0,0,1,3.1-3.2h15.3a3.138,3.138,0,0,1,3.1,3.2v5.5a4.268,4.268,0,0,0-1,2.7v4" fill="#fff" stroke="#3a84e0" stroke-linejoin="round" stroke-miterlimit="10" stroke-width="1.5"/>
      <path id="Path_15089" data-name="Path 15089" d="M581.3,538.9v1.476c0,.886-.5,1.624-1.1,1.624h-4.1c-.6,0-1.1-.738-1.1-1.624V538.9Z" transform="translate(0 -1)" fill="#fff" stroke="#3a84e0" stroke-linejoin="round" stroke-miterlimit="10" stroke-width="1.5"/>
      <path id="Path_15090" data-name="Path 15090" d="M600.9,538.9v1.476c0,.886-.5,1.624-1.1,1.624h-4.1c-.6,0-1.1-.738-1.1-1.624V538.9Z" transform="translate(0 -1)" fill="#fff" stroke="#3a84e0" stroke-linejoin="round" stroke-miterlimit="10" stroke-width="1.5"/>
      <path id="Path_15092" data-name="Path 15092" d="M578.2,526.4v2.2a27.064,27.064,0,0,1,10.3-2.1,26.027,26.027,0,0,1,9.3,1.7v-1.8" transform="translate(0 -1)" fill="#fff" stroke="#3a84e0" stroke-linejoin="round" stroke-miterlimit="10" stroke-width="1.5"/>
      <path id="Path_15093" data-name="Path 15093" d="M606,522.4a4.171,4.171,0,0,1-3.1,4v12.5H573.1V526.4a4.171,4.171,0,0,1-3.1-4,4.055,4.055,0,0,1,4.1-4.1,4.1,4.1,0,0,1,3.1,1.4,4.268,4.268,0,0,1,1,2.7v11.4h19.5V522.4a4.268,4.268,0,0,1,1-2.7,4.1,4.1,0,0,1,3.1-1.4A4.02,4.02,0,0,1,606,522.4Z" transform="translate(0 -1)" fill="#fff" stroke="#3a84e0" stroke-linejoin="round" stroke-miterlimit="10" stroke-width="1.5"/>
    </g>
  </g>
</svg>