<svg xmlns="http://www.w3.org/2000/svg" width="40" height="40.002" viewBox="0 0 40 40.002">
  <g id="Group_20483" data-name="Group 20483" transform="translate(-1351.271 -1791.998)">
    <path id="Path_15656" data-name="Path 15656" d="M112.8,32.035v-1.25h-6.465V23.723h-1.212v7.062H97.045V28.7H95.833V40.368H87.752V34.156H86.54v15.8H82.1V16.619H98.257v3.333h-2.02v5h7.273v-5h-2.02V16.619h2.34v-1.25H82.1V11.2H76.439v4.167H72.8v1.25h3.636l-.024,33.333H73.207V51.2h35.555v-1.25h-2.424V41.619H112.8v-1.25h-6.465V32.035ZM77.651,18.452l2.764,2.854-2.768,2.858ZM80.884,44.7,78.14,41.869l2.743-2.833Zm0-8.229L78.14,33.639l2.743-2.833Zm0-8.229L78.14,25.41l2.743-2.833Zm-3.232-1.579,2.759,2.871L77.635,32.4Zm0,8.225,2.776,2.867-2.78,2.871Zm0,8.225,2.78,2.871L77.647,48.86ZM80.9,47.28v2.671H78.29Zm0-27.25L77.671,16.7v-.079H80.9ZM102.3,23.7H97.449V21.2H102.3Zm-2.02-3.75h-.808V16.618h.808Zm-22.626-7.5h3.232v2.917H77.651ZM97.045,32.035h8.081v8.333H97.045ZM87.752,49.951V41.618h8.081v8.333Zm17.374,0H97.045V41.618h8.081Z" transform="translate(1278.469 1780.798)" fill="#1d72db"/>
    <path id="Path_15657" data-name="Path 15657" d="M588.39,532h2.391v1.21H588.39Z" transform="translate(800.087 1298.79)" fill="#1d72db"/>
    <path id="Path_15658" data-name="Path 15658" d="M302.23,447.236h4.838V442.4H302.23Zm1.21-3.629h2.419v2.419H303.44Z" transform="translate(1065.599 1381.942)" fill="#1d72db"/>
    <path id="Path_15659" data-name="Path 15659" d="M436.1,442.4h-4.838v4.838H436.1Zm-1.21,3.629H432.47V443.61h2.419Z" transform="translate(945.881 1381.939)" fill="#1d72db"/>
    <path id="Path_15660" data-name="Path 15660" d="M431.03,318.439h4.838V313.6H431.03Zm1.21-3.629h2.419v2.419H432.24Z" transform="translate(946.095 1501.003)" fill="#1d72db"/>
  </g>
</svg>
