<svg xmlns="http://www.w3.org/2000/svg" width="40" height="40" viewBox="0 0 40 40">
  <g id="Group_20485" data-name="Group 20485" transform="translate(-1475 -1603)">
    <rect id="Rectangle_2103" data-name="Rectangle 2103" width="40" height="40" transform="translate(1475 1603)" fill="none"/>
    <path id="Path_15661" data-name="Path 15661" d="M162.425,33.6a2.791,2.791,0,0,0-2.823,2.727V61.783a2.791,2.791,0,0,0,2.823,2.727h9.882v7.273h-2.353c-.03,0-.059,0-.088,0a.955.955,0,0,0-.653.3.888.888,0,0,0,.062,1.286.962.962,0,0,0,.678.236h11.294a.959.959,0,0,0,.674-.262.888.888,0,0,0,0-1.295.959.959,0,0,0-.674-.262H178.9V64.51h9.882a2.791,2.791,0,0,0,2.823-2.727V36.329a2.791,2.791,0,0,0-2.823-2.727Zm0,1.818h26.353a.9.9,0,0,1,.941.909V61.783a.9.9,0,0,1-.941.909H162.425a.9.9,0,0,1-.941-.909V36.329A.9.9,0,0,1,162.425,35.42Zm7.956,4.091a2.228,2.228,0,0,0-2.118,1.406l-.015-.014-.044.085-2.735,5.4a.88.88,0,0,0-.044.085,3.657,3.657,0,0,0-1.117,2.614V54.51a.925.925,0,0,0,.941.909h.941v2.273a.926.926,0,0,0,.941.909H170.9a.926.926,0,0,0,.941-.909V55.419h7.53v2.273a.926.926,0,0,0,.941.909h3.765a.926.926,0,0,0,.941-.909V55.419h.941a.925.925,0,0,0,.941-.909V49.084a3.657,3.657,0,0,0-1.132-2.628c-.009-.024-.019-.048-.03-.071L183,40.988l-.044-.085-.015.014a2.228,2.228,0,0,0-2.118-1.406Zm0,1.818h10.441a1.313,1.313,0,0,1,.412.284c.009.029.018.057.03.085l1.882,3.721H168.058L169.94,41.7c.011-.028.021-.056.03-.085a1.313,1.313,0,0,1,.412-.284Zm-2.4,5.909H183.22a1.8,1.8,0,0,1,1.794,1.847V53.6H166.191V49.084a1.8,1.8,0,0,1,1.794-1.847Zm-.382,1.818v2.727h2.441a1.364,1.364,0,0,0,0-2.727Zm13.559,0a1.364,1.364,0,0,0,0,2.727H183.6V49.056Zm-13.088,6.363h1.883v1.364h-1.883Zm13.177,0h1.883v1.364h-1.883ZM174.19,64.51h2.824v7.273H174.19Z" transform="translate(1319.398 1569.398)" fill="#1d72db"/>
  </g>
</svg>
