<svg xmlns="http://www.w3.org/2000/svg" width="18" height="18" viewBox="0 0 18 18">
  <path id="Path_1527" data-name="Path 1527" d="M614.465,223.5a5.017,5.017,0,0,1,1.674.275c3.322,1.137,4.519,4.974,3.519,8.327a12.166,12.166,0,0,1-2.708,4.556,34.931,34.931,0,0,1-5.7,4.7l-.225.143-.234-.153a34.583,34.583,0,0,1-5.732-4.7,12.358,12.358,0,0,1-2.71-4.546c-1.017-3.354.18-7.19,3.538-8.347a3.9,3.9,0,0,1,.8-.2h.108a4.964,4.964,0,0,1,.756-.057h.1a5.364,5.364,0,0,1,1.648.313h.053a.316.316,0,0,1,.081.056,3.09,3.09,0,0,1,.567.247l.342.161a2.429,2.429,0,0,1,.256.178c.05.039.1.074.131.1l.044.027a2.181,2.181,0,0,1,.226.152A5.456,5.456,0,0,1,614.465,223.5Zm2.394,6.821a.758.758,0,0,0,.711-.721v-.113a3.131,3.131,0,0,0-1.9-2.994.713.713,0,0,0-.909.474.786.786,0,0,0,.45.975,1.587,1.587,0,0,1,.963,1.487v.029a.843.843,0,0,0,.171.587A.742.742,0,0,0,616.859,230.322Z" transform="translate(-602 -223.501)" fill="#323d5a" fill-rule="evenodd"/>
</svg>
