<svg xmlns="http://www.w3.org/2000/svg" width="17" height="18" viewBox="0 0 17 18">
  <path id="Path_1518" data-name="Path 1518" d="M440.437,239.9v-2.751a1.273,1.273,0,0,1,1.273-1.273h2.572a1.273,1.273,0,0,1,1.273,1.273V239.9a1.1,1.1,0,0,0,1.1,1.1h1.755a3.082,3.082,0,0,0,3.092-3.08v-7.84a2.23,2.23,0,0,0-.8-1.712l-5.969-4.76a2.76,2.76,0,0,0-3.533.064l-5.832,4.7a2.232,2.232,0,0,0-.865,1.712v7.832A3.09,3.09,0,0,0,437.592,241h1.714a1.105,1.105,0,0,0,1.106-1.1Z" transform="translate(-434.5 -223)" fill="#50bf97"/>
</svg>
