<svg id="Group_16491" data-name="Group 16491" xmlns="http://www.w3.org/2000/svg" width="30" height="30" viewBox="0 0 30 30">
  <path id="Path_11563" data-name="Path 11563" d="M0,0H30V30H0Z" fill="none"/>
  <path id="Path_11564" data-name="Path 11564" d="M14.551,2c3.41,0,3.836.013,5.174.075a9.246,9.246,0,0,1,3.047.584A6.119,6.119,0,0,1,25,4.106,6.16,6.16,0,0,1,26.443,6.33a9.272,9.272,0,0,1,.584,3.047c.059,1.338.075,1.763.075,5.174s-.013,3.836-.075,5.174a9.279,9.279,0,0,1-.584,3.047,6.408,6.408,0,0,1-3.671,3.671,9.272,9.272,0,0,1-3.047.584c-1.338.059-1.763.075-5.174.075s-3.836-.013-5.174-.075a9.279,9.279,0,0,1-3.047-.584,6.408,6.408,0,0,1-3.671-3.671,9.239,9.239,0,0,1-.584-3.047C2.016,18.387,2,17.961,2,14.551s.013-3.836.075-5.174A9.239,9.239,0,0,1,2.659,6.33,6.125,6.125,0,0,1,4.106,4.106,6.146,6.146,0,0,1,6.33,2.659a9.239,9.239,0,0,1,3.047-.584C10.715,2.016,11.141,2,14.551,2Zm0,6.276a6.276,6.276,0,1,0,6.276,6.276A6.276,6.276,0,0,0,14.551,8.276Zm8.158-.314A1.569,1.569,0,1,0,21.14,9.531,1.569,1.569,0,0,0,22.709,7.962Zm-8.158,2.824a3.765,3.765,0,1,1-3.765,3.765A3.765,3.765,0,0,1,14.551,10.786Z" transform="translate(0.449 0.449)" fill="#1d72db"/>
</svg>
