<svg xmlns="http://www.w3.org/2000/svg" width="18" height="18" viewBox="0 0 18 18">
  <path id="Path_1515" data-name="Path 1515" d="M1063.509,234.341a.678.678,0,0,0,.675-.675V232a.678.678,0,0,0-.675-.675h-5.121a2.342,2.342,0,1,0,0,1.35h1.9v.992a.675.675,0,1,0,1.35,0v-.992h1.2v.992A.678.678,0,0,0,1063.509,234.341ZM1055.1,223h7.794c3.051,0,5.1,2.14,5.1,5.325v7.35c0,3.185-2.052,5.324-5.1,5.324H1055.1c-3.051,0-5.1-2.139-5.1-5.324v-7.35C1050,225.139,1052.052,223,1055.1,223Zm.063,9a.99.99,0,1,1,.99.991A.99.99,0,0,1,1055.166,232Z" transform="translate(-1050 -222.999)" fill="#323d5a" fill-rule="evenodd"/>
</svg>
