<svg xmlns="http://www.w3.org/2000/svg" width="20.002" height="19.996" viewBox="0 0 20.002 19.996">
  <path id="Exclusion_3" data-name="Exclusion 3" d="M22191,19699a10,10,0,1,1,7.072-2.928A10.01,10.01,0,0,1,22191,19699Zm-2.578-11.252v.922h2.992a.914.914,0,0,1-.33.58,1.65,1.65,0,0,1-.764.238c-.326.033-.826.051-1.576.051v1.332a2.282,2.282,0,0,0,.557,1.66,2.587,2.587,0,0,0,3.193.033,2.1,2.1,0,0,0,.568-1.543h-1.3a1.2,1.2,0,0,1-.2.746.79.79,0,0,1-.652.256.767.767,0,0,1-.664-.271,1.226,1.226,0,0,1-.193-.742v-.529l.01,0a3.377,3.377,0,0,0,1.873-.426,1.976,1.976,0,0,0,.785-1.383h1.07v-.92h-1.01v-.758h1.01v-.98h-5.371v.98h3.041v.758h-3.041Z" transform="translate(-22180.998 -19679.002)" fill="#50bf97"/>
</svg>
