<svg xmlns="http://www.w3.org/2000/svg" width="18" height="18" viewBox="0 0 18 18">
  <g id="Group_20515" data-name="Group 20515" transform="translate(-1647 -835)">
    <path id="Path_1456" data-name="Path 1456" d="M282.517,345.422a2.063,2.063,0,0,1,.741.711,1.826,1.826,0,0,1-.018,1.845l-.641,1.08a1.869,1.869,0,0,1-2.588.666,1.452,1.452,0,0,0-.8-.207,1.713,1.713,0,0,0-1.692,1.638A1.855,1.855,0,0,1,275.624,353H274.38a1.857,1.857,0,0,1-1.9-1.845,1.7,1.7,0,0,0-1.682-1.638,1.412,1.412,0,0,0-.8.207,1.926,1.926,0,0,1-.97.27,1.906,1.906,0,0,1-1.628-.936l-.631-1.08a1.8,1.8,0,0,1-.018-1.845,1.9,1.9,0,0,1,.731-.711,1.469,1.469,0,0,0,.576-.576,1.656,1.656,0,0,0-.594-2.25,1.846,1.846,0,0,1-.677-2.547l.613-1.062a1.9,1.9,0,0,1,2.579-.684,1.751,1.751,0,0,0,2.295-.621,1.39,1.39,0,0,0,.21-.792,1.617,1.617,0,0,1,.256-.954,1.963,1.963,0,0,1,1.619-.936h1.289a1.923,1.923,0,0,1,1.628.936,1.605,1.605,0,0,1,.247.954,1.4,1.4,0,0,0,.21.792,1.76,1.76,0,0,0,2.3.621,1.883,1.883,0,0,1,2.569.684l.613,1.062a1.83,1.83,0,0,1-.676,2.547,1.645,1.645,0,0,0-.585,2.25A1.385,1.385,0,0,0,282.517,345.422Zm-10.1-1.413a2.583,2.583,0,1,0,2.6-2.547A2.56,2.56,0,0,0,272.414,344.009Z" transform="translate(1381 500)" fill="#323d5a" fill-rule="evenodd"/>
    <rect id="Rectangle_2108" data-name="Rectangle 2108" width="18" height="18" transform="translate(1647 835)" fill="none"/>
  </g>
</svg>
