<svg xmlns="http://www.w3.org/2000/svg" width="24" height="24" viewBox="0 0 24 24">
  <g id="Group_18845" data-name="Group 18845" transform="translate(-1882.75 -4237.75)">
    <path id="Path_2028" data-name="Path 2028" d="M1170.44,289l2.37,2.373,4.75-4.746" transform="translate(720.75 3960.75)" fill="none" stroke="#dbe9f2" stroke-linecap="round" stroke-linejoin="round" stroke-width="2"/>
    <g id="Path_2029" data-name="Path 2029" transform="translate(720 3960)" fill="none" stroke-linecap="round" stroke-linejoin="round" fill-rule="evenodd">
      <path d="M1164.75,289.75c0,7.5,2.5,10,10,10s10-2.5,10-10-2.5-10-10-10S1164.75,282.251,1164.75,289.75Z" stroke="none"/>
      <path d="M 1174.749877929688 279.75 C 1167.247314453125 279.75 1164.749877929688 282.2505187988281 1164.749877929688 289.7499694824219 C 1164.749877929688 297.2494506835938 1167.247314453125 299.7499694824219 1174.749877929688 299.7499694824219 C 1182.252563476563 299.7499694824219 1184.749877929688 297.2494506835938 1184.749877929688 289.7499694824219 C 1184.749877929688 282.2505187988281 1182.252563476563 279.75 1174.749877929688 279.75 M 1174.749877929688 277.75 C 1179.213989257813 277.75 1182.06005859375 278.6054382324219 1183.977783203125 280.5236511230469 C 1185.894897460938 282.4413146972656 1186.749877929688 285.2868041992188 1186.749877929688 289.7499694824219 C 1186.749877929688 294.2131652832031 1185.894897460938 297.0586547851563 1183.977783203125 298.976318359375 C 1182.06005859375 300.89453125 1179.213989257813 301.7499694824219 1174.749877929688 301.7499694824219 C 1170.285766601563 301.7499694824219 1167.439819335938 300.89453125 1165.52197265625 298.976318359375 C 1163.604858398438 297.0586547851563 1162.749877929688 294.213134765625 1162.749877929688 289.7499694824219 C 1162.749877929688 285.2868041992188 1163.604858398438 282.4413146972656 1165.52197265625 280.5236511230469 C 1167.439819335938 278.6054077148438 1170.285766601563 277.75 1174.749877929688 277.75 Z" stroke="none" fill="#fff"/>
    </g>
  </g>
</svg>
