<svg xmlns="http://www.w3.org/2000/svg" width="40" height="40" viewBox="0 0 40 40">
  <g id="Group_20480" data-name="Group 20480" transform="translate(-150 -1337)">
    <rect id="Rectangle_2102" data-name="Rectangle 2102" width="40" height="40" transform="translate(150 1337)" fill="none"/>
    <path id="noun-transactions-3849739" d="M213.011,85.083a1.065,1.065,0,0,1,1.077-1.052H220.1l-1.269-1.24h0a1.035,1.035,0,0,1,.013-1.475,1.1,1.1,0,0,1,1.509-.013l3.108,3.034a1.035,1.035,0,0,1,.234,1.148,1.078,1.078,0,0,1-1,.649h-8.615a1.065,1.065,0,0,1-1.077-1.052ZM222.7,88.24h-8.615a1.078,1.078,0,0,0-1,.649,1.035,1.035,0,0,0,.234,1.148l3.108,3.043a1.1,1.1,0,0,0,1.509-.013,1.035,1.035,0,0,0,.013-1.475l-1.268-1.248H222.7a1.053,1.053,0,1,0,0-2.1ZM232.4,68.248v37.878c0,.034-.017.061-.02.095h0a1.084,1.084,0,0,1-.041.21,1.07,1.07,0,0,1-.086.211.891.891,0,0,1-.035.082c-.017.025-.041.032-.056.051h0a1.047,1.047,0,0,1-.269.24,1.211,1.211,0,0,1-.108.069,1,1,0,0,1-1-.048.078.078,0,0,1-.058-.017l-2.636-1.734L225.445,107h0a1.1,1.1,0,0,1-1.193,0l-2.645-1.715L218.979,107h0a1.1,1.1,0,0,1-1.2,0l-2.634-1.715L212.519,107h0a1.1,1.1,0,0,1-1.2,0l-2.621-1.715L206.071,107c-.026.017-.058.019-.086.034h0a.918.918,0,0,1-.215.084,1.02,1.02,0,0,1-.194.038.831.831,0,0,1-.1.025.858.858,0,0,1-.11-.021,1.19,1.19,0,0,1-.2-.04,1.084,1.084,0,0,1-.2-.078,1.07,1.07,0,0,1-.159-.1,1.023,1.023,0,0,1-.16-.156c-.021-.025-.052-.04-.071-.069a.724.724,0,0,1-.036-.086,1.1,1.1,0,0,1-.125-.406c0-.034-.02-.061-.02-.095V68.248c0-.034.017-.061.02-.095a1.1,1.1,0,0,1,.125-.406.7.7,0,0,1,.036-.086c.02-.029.05-.044.071-.069h0a1.107,1.107,0,0,1,.16-.156,1,1,0,0,1,.161-.105,1.083,1.083,0,0,1,.192-.078,1.048,1.048,0,0,1,.216-.04.776.776,0,0,1,.1-.017c.035,0,.065.017.1.019h0a1.05,1.05,0,0,1,.216.042,1.12,1.12,0,0,1,.2.08.84.84,0,0,1,.088.036L208.7,69.09l2.623-1.713h0a1.1,1.1,0,0,1,1.2,0l2.63,1.715,2.634-1.715a1.1,1.1,0,0,1,1.2,0l2.628,1.715,2.636-1.715a1.1,1.1,0,0,1,1.193,0l2.649,1.713,2.645-1.715c.026-.017.056-.019.084-.034h0a.956.956,0,0,1,.2-.082,1.022,1.022,0,0,1,.215-.042c.035,0,.062-.019.1-.019s.065.017.1.019a1.188,1.188,0,0,1,.216.042,1.148,1.148,0,0,1,.187.076,1.109,1.109,0,0,1,.163.107.957.957,0,0,1,.162.16c.021.025.05.04.069.068a.635.635,0,0,1,.035.082h0a1.073,1.073,0,0,1,.086.211,1.086,1.086,0,0,1,.041.21c-.013.015,0,.042,0,.076Zm-2.154,1.961-1.568,1.018h0a1.1,1.1,0,0,1-1.189,0l-2.645-1.717-2.634,1.715a1.1,1.1,0,0,1-1.2,0l-2.63-1.715-2.632,1.715h0a1.1,1.1,0,0,1-1.2,0l-2.63-1.715L209.3,71.224a1.1,1.1,0,0,1-1.2,0l-1.555-1.008v33.943l1.555-1.012a1.1,1.1,0,0,1,1.2,0l2.623,1.713,2.63-1.713a1.1,1.1,0,0,1,1.2,0l2.632,1.715,2.63-1.715h0a1.1,1.1,0,0,1,1.2,0l2.634,1.715,2.645-1.715a1.1,1.1,0,0,1,1.189,0l1.568,1.018Z" transform="translate(-48.395 1269.804)" fill="#1d72db"/>
  </g>
</svg>
