<svg id="Group_16492" data-name="Group 16492" xmlns="http://www.w3.org/2000/svg" width="30" height="30" viewBox="0 0 30 30">
  <path id="Path_11565" data-name="Path 11565" d="M0,0H30V30H0Z" fill="none"/>
  <path id="Path_11566" data-name="Path 11566" d="M27.35,6.17A10.473,10.473,0,0,1,24.337,7a5.288,5.288,0,0,0,2.308-2.919,10.45,10.45,0,0,1-3.332,1.28A5.226,5.226,0,0,0,17,4.313a5.286,5.286,0,0,0-2.631,5.86A14.869,14.869,0,0,1,3.559,4.66,5.3,5.3,0,0,0,5.183,11.7a5.207,5.207,0,0,1-2.376-.66v.066a5.272,5.272,0,0,0,4.208,5.173,5.253,5.253,0,0,1-2.37.091,5.254,5.254,0,0,0,4.9,3.665,10.489,10.489,0,0,1-7.767,2.185A14.782,14.782,0,0,0,9.821,24.6c9.651,0,14.929-8.039,14.929-15.011,0-.227-.006-.457-.016-.681a10.691,10.691,0,0,0,2.618-2.731Z" transform="translate(0.399 0.828)" fill="#1d72db"/>
</svg>
