<svg xmlns="http://www.w3.org/2000/svg" width="52" height="52" viewBox="0 0 52 52">
  <g id="Group_19801" data-name="Group 19801" transform="translate(-1107 -164)">
    <rect id="Rectangle_1847" data-name="Rectangle 1847" width="52" height="52" rx="26" transform="translate(1107 164)" fill="rgba(219,233,242,0.3)"/>
    <path id="Path_1471" data-name="Path 1471" d="M1062.48,281.442l7.27,12.615a2.929,2.929,0,0,1,.25,1,2.757,2.757,0,0,1-.73,2.021,2.839,2.839,0,0,1-1.95.921h-14.64a3.153,3.153,0,0,1-.91-.2,2.8,2.8,0,0,1-1.56-3.656l7.32-12.713a2.73,2.73,0,0,1,1.1-1.08A2.851,2.851,0,0,1,1062.48,281.442Zm-1.61,8.314a.875.875,0,0,1-1.75,0v-2.8a.875.875,0,0,1,1.75,0Zm-.87,4.262a.873.873,0,1,1,0-1.745.867.867,0,0,1,.87.862A.879.879,0,0,1,1060,294.018Z" transform="translate(73.001 -100)" fill="#323d5a" fill-rule="evenodd"/>
  </g>
</svg>
