<svg xmlns="http://www.w3.org/2000/svg" width="52" height="52" viewBox="0 0 52 52">
  <g id="Group_19469" data-name="Group 19469" transform="translate(-1107 -164)">
    <rect id="Rectangle_1847" data-name="Rectangle 1847" width="52" height="52" rx="26" transform="translate(1107 164)" fill="rgba(219,233,242,0.3)"/>
    <path id="Path_1531" data-name="Path 1531" d="M155.5,342.486a7.885,7.885,0,0,1,15.75,0,9.164,9.164,0,0,1-2.067,5.665,20.217,20.217,0,0,1-5.133,4.626,1.136,1.136,0,0,1-1.352,0,19.851,19.851,0,0,1-5.133-4.626A9.163,9.163,0,0,1,155.5,342.486Zm5.275.233a2.6,2.6,0,0,0,5.2,0,2.6,2.6,0,0,0-5.2,0Z" transform="translate(969.625 -154)" fill="#1d72db" fill-rule="evenodd"/>
  </g>
</svg>
