<svg xmlns="http://www.w3.org/2000/svg" width="52" height="52" viewBox="0 0 52 52">
  <g id="Group_19468" data-name="Group 19468" transform="translate(-1107 -164)">
    <rect id="Rectangle_1847" data-name="Rectangle 1847" width="52" height="52" rx="26" transform="translate(1107 164)" fill="rgba(219,233,242,0.3)"/>
    <path id="Path_1514" data-name="Path 1514" d="M1013.44,223.582a1.948,1.948,0,0,0-1.94-.5l-16.092,4.681a1.919,1.919,0,0,0-1.384,1.521,2.253,2.253,0,0,0,1,2.1l5.033,3.094a1.306,1.306,0,0,0,1.61-.193l5.76-5.8a.733.733,0,0,1,1.06,0,.763.763,0,0,1,0,1.067l-5.77,5.8a1.313,1.313,0,0,0-.19,1.618l3.07,5.084a1.909,1.909,0,0,0,1.66.946,2.091,2.091,0,0,0,.25-.01,1.949,1.949,0,0,0,1.63-1.389l4.78-16.076A1.965,1.965,0,0,0,1013.44,223.582Z" transform="translate(129 -43)" fill="#323d5a"/>
  </g>
</svg>
